<?xml version="1.0" encoding="utf-8"?>
<!-- Generator: Adobe Illustrator 27.5.0, SVG Export Plug-In . SVG Version: 6.00 Build 0)  -->
<svg version="1.1" xmlns="http://www.w3.org/2000/svg" xmlns:xlink="http://www.w3.org/1999/xlink" x="0px" y="0px"
	 viewBox="0 0 2500 2500" style="enable-background:new 0 0 2500 2500;" xml:space="preserve">
<g id="BG">
	<rect style="fill:#312A52;" width="2500" height="2500"/>
</g>
<g id="gears">
	<g id="small_gears">
		<g>
			<path style="fill:#FFFFFF;" d="M1391.42,1449.637c8.443,10.374,18.544,18.6,29.607,24.605l5.206-9.56
				c10.421,5.677,21.804,9.133,33.387,10.351l-1.108,10.802c12.776,1.311,25.803,0.183,38.332-3.52l-0.671-2.328l-2.396-8.109
				c10.953-3.219,21.487-8.653,30.9-16.314l6.88,8.453c10.374-8.443,18.599-18.544,24.58-29.639l-9.56-5.207
				c5.702-10.389,9.159-21.771,10.376-33.355l10.803,1.108c1.311-12.776,0.156-25.836-3.546-38.364l-0.032,0.026l-3.023,0.863
				l-7.383,2.177c-3.219-10.953-8.627-21.455-16.288-30.868l8.453-6.88c-8.443-10.374-18.571-18.631-29.665-24.611l-5.206,9.56
				c-10.39-5.702-21.746-9.127-33.33-10.344l1.109-10.802c-12.777-1.311-25.835-0.158-38.364,3.546l3.067,10.438
				c-10.953,3.219-21.455,8.626-30.868,16.287l-6.879-8.452c-10.374,8.443-18.631,18.569-24.611,29.664l9.56,5.207
				c-5.702,10.389-9.127,21.746-10.345,33.329l-10.802-1.109c-1.343,12.802-0.157,25.835,3.546,38.364l0.09-0.021l6.87-2.024
				l3.479-1.023c3.219,10.953,8.652,21.488,16.287,30.869L1391.42,1449.637z M1417.299,1428.564
				c-23.091-28.371-18.811-70.084,9.56-93.175c28.415-23.127,70.129-18.847,93.22,9.524c23.126,28.415,18.846,70.129-9.569,93.256
				C1482.139,1461.26,1440.426,1456.979,1417.299,1428.564z M1436.702,1386.489c0-18.331,14.86-33.192,33.191-33.192
				c18.331,0,33.192,14.86,33.192,33.192s-14.86,33.192-33.192,33.192C1451.563,1419.681,1436.702,1404.821,1436.702,1386.489z"/>
		</g>
		<g>
			<path style="fill:#FFFFFF;" d="M672.937,1649.958c7.729,9.496,16.975,17.026,27.102,22.524l4.766-8.751
				c9.539,5.197,19.959,8.36,30.563,9.475l-1.014,9.888c11.696,1.2,23.62,0.168,35.089-3.223l-0.614-2.131l-2.193-7.423
				c10.026-2.947,19.669-7.921,28.286-14.934l6.297,7.738c9.496-7.729,17.026-16.976,22.501-27.132l-8.752-4.766
				c5.22-9.51,8.384-19.93,9.498-30.533l9.889,1.015c1.2-11.696,0.143-23.65-3.246-35.119l-0.029,0.024l-2.767,0.79l-6.758,1.993
				c-2.947-10.027-7.897-19.64-14.91-28.257l7.738-6.298c-7.729-9.496-17-17.055-27.155-22.529l-4.766,8.751
				c-9.511-5.22-19.907-8.355-30.511-9.469l1.015-9.889c-11.696-1.2-23.65-0.144-35.119,3.246l2.807,9.555
				c-10.026,2.947-19.64,7.896-28.257,14.91l-6.297-7.737c-9.496,7.729-17.055,16.999-22.529,27.155l8.752,4.766
				c-5.22,9.51-8.355,19.906-9.47,30.51l-9.888-1.015c-1.229,11.719-0.143,23.65,3.246,35.119l0.082-0.019l6.288-1.853l3.185-0.936
				c2.947,10.026,7.92,19.67,14.909,28.258L672.937,1649.958z M718.1,1613.206c-11.492-14.12-9.362-34.881,4.758-46.373
				c14.142-11.51,34.903-9.38,46.395,4.74c11.51,14.142,9.38,34.903-4.762,46.413C750.371,1629.479,729.61,1627.348,718.1,1613.206z
				"/>
		</g>
		<g>
			<path style="fill:none;stroke:#FFFFFF;stroke-width:5;stroke-miterlimit:10;" d="M1712.086,780.626
				c5.161,6.342,11.337,11.371,18.1,15.042l3.183-5.844c6.371,3.47,13.329,5.583,20.411,6.328l-0.677,6.604
				c7.811,0.801,15.774,0.112,23.433-2.152l-0.41-1.423l-1.465-4.957c6.696-1.968,13.136-5.29,18.89-9.973l4.206,5.167
				c6.342-5.161,11.37-11.337,15.027-18.119l-5.844-3.183c3.486-6.351,5.599-13.31,6.343-20.391l6.604,0.678
				c0.802-7.811,0.096-15.794-2.168-23.453l-0.02,0.016l-1.848,0.528l-4.514,1.331c-1.968-6.696-5.274-13.116-9.957-18.871
				l5.168-4.206c-5.161-6.342-11.353-11.39-18.135-15.045l-3.183,5.844c-6.352-3.486-13.294-5.58-20.376-6.324l0.678-6.604
				c-7.811-0.802-15.794-0.096-23.453,2.168l1.875,6.381c-6.696,1.968-13.116,5.273-18.871,9.957l-4.205-5.167
				c-6.342,5.161-11.39,11.352-15.046,18.135l5.844,3.183c-3.486,6.351-5.58,13.294-6.324,20.375l-6.603-0.678
				c-0.821,7.827-0.096,15.794,2.168,23.453l0.055-0.013l4.199-1.237l2.127-0.625c1.968,6.696,5.289,13.136,9.957,18.871
				L1712.086,780.626z M1742.248,756.082c-7.675-9.43-6.252-23.294,3.178-30.969c9.444-7.687,23.309-6.264,30.984,3.165
				c7.687,9.444,6.264,23.309-3.181,30.996C1763.799,766.949,1749.935,765.526,1742.248,756.082z"/>
		</g>
		<g>
			<path style="fill:none;stroke:#FFFFFF;stroke-width:5;stroke-miterlimit:10;" d="M522.624,1594.734
				c5.161,6.342,11.337,11.371,18.1,15.042l3.183-5.844c6.371,3.47,13.329,5.583,20.41,6.328l-0.677,6.604
				c7.811,0.801,15.774,0.112,23.433-2.152l-0.41-1.423l-1.465-4.957c6.696-1.968,13.136-5.29,18.89-9.973l4.206,5.167
				c6.342-5.161,11.37-11.337,15.027-18.119l-5.845-3.183c3.486-6.351,5.599-13.31,6.343-20.391l6.604,0.678
				c0.801-7.811,0.096-15.794-2.168-23.453l-0.02,0.016l-1.848,0.528l-4.513,1.331c-1.968-6.696-5.274-13.116-9.957-18.871
				l5.168-4.206c-5.161-6.342-11.353-11.39-18.135-15.045l-3.183,5.844c-6.352-3.486-13.294-5.58-20.376-6.324l0.678-6.604
				c-7.811-0.802-15.794-0.096-23.453,2.168l1.875,6.381c-6.696,1.968-13.116,5.273-18.871,9.957l-4.206-5.167
				c-6.342,5.161-11.39,11.352-15.046,18.135l5.844,3.183c-3.486,6.351-5.58,13.294-6.324,20.375l-6.603-0.678
				c-0.821,7.827-0.096,15.794,2.167,23.453l0.055-0.013l4.199-1.237l2.127-0.625c1.968,6.696,5.289,13.136,9.957,18.871
				L522.624,1594.734z M552.785,1570.191c-7.675-9.43-6.252-23.294,3.178-30.969c9.444-7.687,23.309-6.264,30.984,3.165
				c7.687,9.444,6.264,23.309-3.18,30.996C574.336,1581.058,560.472,1579.635,552.785,1570.191z"/>
		</g>
		<g>
			<path style="fill:#FFFFFF;" d="M665.925,774.463c7.165,8.803,15.737,15.785,25.126,20.881l4.418-8.113
				c8.844,4.818,18.504,7.751,28.334,8.784l-0.94,9.167c10.843,1.112,21.898,0.155,32.53-2.988l-0.569-1.976l-2.033-6.882
				c9.295-2.732,18.235-7.343,26.223-13.845l5.838,7.173c8.804-7.165,15.784-15.738,20.86-25.153l-8.113-4.419
				c4.839-8.817,7.772-18.476,8.806-28.307l9.168,0.941c1.112-10.843,0.133-21.926-3.01-32.557l-0.027,0.022l-2.565,0.733
				l-6.266,1.847c-2.732-9.295-7.321-18.208-13.823-26.196l7.174-5.839c-7.165-8.804-15.76-15.811-25.175-20.886l-4.418,8.113
				c-8.817-4.839-18.455-7.746-28.285-8.779l0.941-9.167c-10.843-1.113-21.925-0.134-32.558,3.009l2.602,8.859
				c-9.295,2.732-18.208,7.32-26.196,13.822l-5.838-7.173c-8.803,7.165-15.811,15.759-20.886,25.174l8.113,4.419
				c-4.839,8.816-7.746,18.455-8.779,28.285l-9.167-0.941c-1.14,10.865-0.133,21.925,3.009,32.558l0.076-0.017l5.83-1.718
				l2.953-0.868c2.732,9.295,7.343,18.235,13.822,26.197L665.925,774.463z M707.184,740.888
				c-10.929-13.428-8.903-33.17,4.525-44.099c13.449-10.946,33.191-8.92,44.12,4.507c10.946,13.449,8.92,33.191-4.529,44.137
				C737.872,756.362,718.13,754.336,707.184,740.888z"/>
		</g>
		<g>
			<path style="fill:#48C6C6;" d="M556.03,1117.248c3.786,4.652,8.316,8.341,13.277,11.034l2.335-4.287
				c4.673,2.546,9.778,4.096,14.972,4.642l-0.497,4.844c5.729,0.588,11.571,0.082,17.19-1.578l-0.301-1.044l-1.074-3.636
				c4.912-1.444,9.636-3.88,13.857-7.316l3.085,3.791c4.652-3.786,8.341-8.316,11.023-13.291l-4.287-2.335
				c2.557-4.659,4.107-9.763,4.653-14.958l4.844,0.497c0.588-5.729,0.07-11.586-1.59-17.204l-0.014,0.012l-1.356,0.387l-3.311,0.976
				c-1.444-4.912-3.869-9.621-7.304-13.843l3.791-3.085c-3.786-4.652-8.328-8.355-13.303-11.037l-2.335,4.287
				c-4.659-2.557-9.752-4.093-14.947-4.639l0.497-4.844c-5.73-0.588-11.586-0.071-17.204,1.59l1.375,4.681
				c-4.912,1.444-9.621,3.868-13.843,7.304l-3.085-3.79c-4.652,3.786-8.355,8.327-11.037,13.303l4.287,2.335
				c-2.557,4.659-4.093,9.752-4.639,14.946l-4.844-0.497c-0.602,5.741-0.07,11.586,1.59,17.204l0.04-0.009l3.081-0.908l1.56-0.459
				c1.444,4.912,3.88,9.636,7.304,13.843L556.03,1117.248z M582.745,1095.511c-3.568-4.384-2.907-10.83,1.477-14.398
				c4.391-3.574,10.837-2.912,14.405,1.472c3.574,4.391,2.912,10.837-1.479,14.411
				C592.765,1100.564,586.319,1099.902,582.745,1095.511z"/>
		</g>
		<g>
			<path style="fill:#48C6C6;" d="M1443.036,1020.329c-2.205,0-4.42-0.114-6.64-0.342l-2.487-0.255l0.69-6.733
				c-5.9-0.872-11.555-2.624-16.867-5.225l-3.241,5.951l-2.193-1.191c-7.325-3.977-13.731-9.3-19.039-15.822l-1.579-1.939
				l5.265-4.284c-3.558-4.772-6.316-9.999-8.229-15.59l-4.188,1.229l-2.295,0.533l-0.723-2.247
				c-2.384-8.065-3.151-16.366-2.28-24.673l0.26-2.481l6.727,0.69c0.874-5.919,2.623-11.563,5.217-16.834l-5.939-3.234l1.182-2.191
				c3.95-7.329,9.275-13.749,15.829-19.081l1.939-1.578l4.283,5.263c4.772-3.558,9.999-6.316,15.59-8.229l-1.908-6.499l2.393-0.707
				c8.019-2.37,16.32-3.137,24.668-2.28l2.487,0.255l-0.691,6.732c5.919,0.873,11.563,2.622,16.835,5.216l3.234-5.94l2.191,1.181
				c7.328,3.95,13.748,9.276,19.082,15.829l1.578,1.939l-5.265,4.284c3.558,4.773,6.316,9.999,8.229,15.588l3.601-1.049l2.514-2.074
				l1.092,3.61c2.37,8.017,3.138,16.316,2.281,24.667l-0.256,2.487l-6.732-0.691c-0.874,5.912-2.629,11.56-5.235,16.851l5.939,3.234
				l-1.182,2.191c-3.95,7.328-9.27,13.743-15.81,19.065l-1.939,1.578l-4.283-5.264c-4.783,3.567-10.016,6.331-15.606,8.244
				l1.895,6.502l-2.382,0.704C1455.176,1019.458,1449.143,1020.329,1443.036,1020.329z M1439.398,1015.217
				c6.03,0.368,12.01-0.18,17.826-1.634l-1.892-6.399l2.402-0.706c6.646-1.954,12.776-5.19,18.22-9.621l1.939-1.578l4.217,5.183
				c4.534-4.013,8.366-8.631,11.431-13.776l-5.877-3.2l1.207-2.199c3.323-6.055,5.381-12.672,6.116-19.667l0.261-2.481l6.617,0.679
				c0.365-6.026-0.188-12.008-1.649-17.844l-6.401,1.888l-0.705-2.4c-1.954-6.646-5.185-12.769-9.604-18.2l-1.577-1.939l5.183-4.218
				c-4.022-4.544-8.646-8.383-13.793-11.449l-3.2,5.877l-2.199-1.207c-6.028-3.308-12.64-5.36-19.652-6.097l-2.48-0.261l0.68-6.617
				c-6.024-0.365-12.005,0.187-17.839,1.648l1.881,6.403l-2.398,0.705c-6.647,1.954-12.771,5.185-18.199,9.604l-1.939,1.578
				l-4.217-5.183c-4.545,4.021-8.384,8.645-11.45,13.792l5.877,3.2l-1.207,2.199c-3.309,6.027-5.36,12.639-6.098,19.652l-0.261,2.48
				l-6.62-0.68c-0.373,5.997,0.181,11.979,1.652,17.842l6.402-1.884l0.705,2.398c1.954,6.648,5.186,12.771,9.604,18.2l1.579,1.939
				l-5.183,4.218c4.004,4.523,8.617,8.359,13.759,11.44l3.193-5.863l2.195,1.196c6.091,3.317,12.717,5.371,19.695,6.104l2.479,0.261
				L1439.398,1015.217z"/>
			
				<ellipse transform="matrix(0.2298 -0.9732 0.9732 0.2298 180.3119 2140.3872)" style="fill:#48C6C6;" cx="1442.404" cy="956.277" rx="21.319" ry="21.319"/>
		</g>
		<g>
			<path style="fill:#FFFFFF;" d="M463.929,1119.367c-15.95-24.927-28.647-51.661-37.759-79.501l-38.581,12.311l-2.278,0.579
				l-0.718-2.238c-15.84-49.356-21.753-100.381-17.574-151.657l0.203-2.486l42.628,3.378c4.025-45.47,16.328-88.634,36.59-128.372
				l-38.099-19.617l1.13-2.218c23.272-45.683,55.157-85.984,94.771-119.783l1.902-1.623l27.856,32.648
				c34.702-29.197,73.903-51.061,116.595-65.028l-13.026-40.813l2.377-0.763c49.058-15.748,100.08-21.662,151.65-17.576l2.492,0.197
				l-3.378,42.638c14.34,1.271,28.702,3.419,42.729,6.39l-1.036,4.892c-14.631-3.099-29.631-5.289-44.585-6.51l-2.485-0.203
				l3.376-42.608c-49.236-3.594-97.941,2.053-144.855,16.786l13.023,40.804l-2.381,0.76
				c-43.764,13.975-83.854,36.333-119.156,66.454l-1.902,1.623l-27.846-32.636c-37.594,32.482-68.036,70.954-90.527,114.406
				l38.117,19.626l-1.156,2.226c-21.013,40.48-33.597,84.62-37.403,131.191l-0.203,2.485l-42.611-3.376
				c-3.676,48.968,1.972,97.679,16.797,144.876l40.798-13.046l0.761,2.382c9.029,28.282,21.807,55.435,37.977,80.705
				L463.929,1119.367z"/>
		</g>
		<g>
			<path style="fill:#FFFFFF;" d="M672.352,1811.436l-0.75-20.187c-20.807,0.413-41.009-2.862-60.145-9.789l-7.113,18.941
				l-2.334-0.865c-22.857-8.471-43.645-21.305-61.788-38.146l-1.833-1.7l13.792-14.858c-14.948-14.285-26.93-30.892-35.661-49.425
				l-18.434,8.347l-1.034-2.271c-10.141-22.297-15.746-46.063-16.659-70.638l-0.093-2.498l20.193-0.75
				c-0.129-6.417,0.104-12.875,0.693-19.235l4.978,0.461c-0.646,6.975-0.851,14.071-0.606,21.094l0.086,2.492l-20.145,0.749
				c1.123,22.199,6.192,43.697,15.087,63.977l18.408-8.336l1.032,2.277c8.875,19.593,21.45,37.022,37.375,51.807l1.833,1.7
				l-13.768,14.833c16.594,14.998,35.396,26.609,55.952,34.553l7.114-18.943l2.345,0.89c19.964,7.574,41.178,11.029,63.043,10.271
				l2.493-0.087l0.749,20.15c22.088-1.074,43.59-6.147,63.985-15.096l-8.345-18.405l2.278-1.031
				c12.663-5.735,24.597-13.152,35.469-22.044l3.165,3.871c-10.557,8.633-22.086,15.918-34.302,21.679l7.377,16.301l0.836,2.194
				l-2.138,0.972c-22.431,10.2-46.198,15.806-70.643,16.66L672.352,1811.436z"/>
		</g>
		<g>
			<path style="fill:#FFFFFF;" d="M1883.673,790.896l-4.617-1.92c2.132-5.125,3.956-10.446,5.424-15.815l0.657-2.406l15.47,4.188
				c4.229-16.739,5.43-33.855,3.572-50.956l-15.945,1.981l-0.308-2.48c-2.104-16.911-7.515-33.056-16.084-47.987l-1.245-2.169
				l13.955-8.009c-8.898-14.92-20.167-27.872-33.543-38.556l-9.876,12.704l-1.976-1.546c-13.321-10.427-28.555-18.032-45.276-22.604
				l-2.405-0.658l4.189-15.474c-16.646-4.24-33.77-5.438-50.965-3.566l1.989,15.943l-2.481,0.309
				c-10.93,1.359-21.702,4.162-32.02,8.33l-1.873-4.636c9.939-4.015,20.288-6.812,30.797-8.323l-1.692-13.669l-0.134-2.332
				l2.317-0.292c19.514-2.457,38.957-1.093,57.791,4.051l2.406,0.657l-4.201,15.517c15.606,4.567,29.932,11.715,42.649,21.284
				l9.881-12.709l1.972,1.519c15.412,11.875,28.214,26.586,38.049,43.722l1.245,2.169l-13.993,8.031
				c7.789,14.162,12.879,29.346,15.153,45.202l15.981-1.986l0.312,2.476c2.442,19.397,1.08,38.839-4.049,57.785l-0.653,2.413
				l-15.523-4.203C1887.229,781.635,1885.567,786.34,1883.673,790.896z"/>
		</g>
	</g>
	<g id="Gear_06">
		<g>
			<g>
				<g>
					
						<rect x="1748.366" y="1187.219" transform="matrix(0.0134 -0.9999 0.9999 0.0134 556.3337 2957.2102)" style="fill:#3386A7;" width="56.736" height="18.927"/>
					<g>
						<g>
							<polygon style="fill:#55E6E6;" points="1763.748,1210.425 1787.984,1211.013 1800.205,1219.882 1751.111,1218.691 							"/>
						</g>
						<g>
							<path style="fill:#3386A7;" d="M1812.944,1319.121c-0.972,0-1.934-0.429-2.582-1.252c-1.122-1.425-0.876-3.489,0.549-4.611
								l9.421-7.417l-23.92-60.228l-39.34-1.121l-30.467,59.543l7.173,5.501c1.439,1.103,1.711,3.164,0.607,4.603
								c-1.103,1.44-3.164,1.711-4.603,0.607l-9.344-7.166c-1.258-0.964-1.647-2.69-0.925-4.101l32.658-63.824
								c0.577-1.127,1.75-1.827,3.017-1.787l43.573,1.242c1.311,0.037,2.474,0.851,2.958,2.07l25.621,64.513
								c0.537,1.351,0.121,2.893-1.02,3.792l-11.345,8.932C1814.371,1318.891,1813.655,1319.121,1812.944,1319.121z"/>
							
								<rect x="1762.309" y="1204.811" transform="matrix(0.0285 -0.9996 0.9996 0.0285 493.5047 2974.5383)" style="fill:#3386A7;" width="29.363" height="57.154"/>
						</g>
					</g>
				</g>
				<path style="fill:#3386A7;" d="M1770.615,1318.917c-0.344,0-0.695-0.055-1.039-0.169c-1.721-0.574-2.65-2.433-2.077-4.153
					l4.213-12.639l2.166-64.106c0.061-1.812,1.564-3.23,3.392-3.17c1.812,0.061,3.232,1.58,3.17,3.392l-2.182,64.581
					c-0.011,0.316-0.067,0.628-0.167,0.927l-4.363,13.091C1773.271,1318.047,1771.99,1318.917,1770.615,1318.917z"/>
			</g>
			<path style="fill:#3386A7;" d="M1775.772,1174.627c-17.167-9.918-27.797-29.559-25.85-47.763
				c1.819-17.004,13.777-29.888,33.672-36.277c23.671-7.602,24.994-27.089,24.464-35.114c-1.09-16.518-11.752-31.723-23.767-33.896
				l0.585-3.231c13.633,2.465,25.255,18.679,26.458,36.91c0.552,8.366-1.26,16.182-5.241,22.603
				c-4.599,7.416-11.83,12.75-21.495,15.854c-18.583,5.968-29.739,17.865-31.411,33.5c-1.814,16.954,8.149,35.282,24.228,44.571
				L1775.772,1174.627z"/>
			
				<rect x="1794.534" y="1096.59" transform="matrix(0.6697 -0.7426 0.7426 0.6697 -214.6889 1729.4263)" style="fill:#3386A7;" width="84.476" height="18.927"/>
			<g>
				<path style="fill:#55E6E6;" d="M1839.017,1134.012l-47.504,53.094c-7.282,8.14-19.784,8.834-27.924,1.552l0,0
					c-8.14-7.283-8.834-19.785-1.552-27.924l47.504-53.094c7.283-8.139,19.785-8.834,27.924-1.552l0,0
					C1845.605,1113.37,1846.3,1125.872,1839.017,1134.012z"/>
				<g>
					<g>
						<path style="fill:#3386A7;" d="M1768.763,1171.018c-1.466,4.238,0.79,8.878,5.028,10.344c4.238,1.466,8.878-0.79,10.344-5.028
							c1.466-4.238-0.79-8.878-5.028-10.344C1774.869,1164.524,1770.229,1166.78,1768.763,1171.018z"/>
					</g>
				</g>
				<g>
					<g>
						<path style="fill:#3386A7;" d="M1817.904,1117.438c-1.466,4.238,0.79,8.878,5.028,10.344s8.878-0.79,10.344-5.028
							s-0.79-8.878-5.028-10.344C1824.01,1110.945,1819.37,1113.2,1817.904,1117.438z"/>
					</g>
				</g>
			</g>
			<g>
				<g>
					<path style="fill:#55E6E6;" d="M1844.728,1093.732l-111.896-98.519c-14.879-13.715-15.822-36.895-2.107-51.774l0,0
						c13.715-14.879,36.895-15.822,51.774-2.107l111.896,98.519c14.879,13.715,15.822,36.895,2.107,51.774l0,0
						C1882.786,1106.504,1859.606,1107.447,1844.728,1093.732z"/>
					<g>
						<g>
							<path style="fill:#3386A7;" d="M1764.511,950.058c-9.714-3.521-20.481,1.516-24.002,11.23
								c-3.521,9.714,1.516,20.481,11.23,24.002c9.714,3.522,20.481-1.516,24.003-11.23
								C1779.263,964.347,1774.225,953.579,1764.511,950.058z"/>
						</g>
						<g>
							<path style="fill:#3386A7;" d="M1875.642,1049.23c-9.75-3.418-20.464,1.734-23.882,11.484
								c-3.418,9.75,1.734,20.464,11.484,23.882c9.751,3.418,20.464-1.734,23.882-11.484
								C1890.544,1063.361,1885.392,1052.648,1875.642,1049.23z"/>
						</g>
					</g>
				</g>
				<g>
					<path style="fill:#55E6E6;" d="M1872.839,1057.226c-5.342-1.873-11.211,0.95-13.083,6.292
						c-1.872,5.341,0.95,11.211,6.291,13.083c5.342,1.873,11.211-0.95,13.083-6.291
						C1881.003,1064.967,1878.18,1059.098,1872.839,1057.226z"/>
				</g>
			</g>
		</g>
		<g>
			<g>
				<path style="fill:#3E95AB;" d="M2055.291,1119.775c-0.007-12.219-0.849-24.243-2.467-36.019l14.266-1.974
					c-1.741-12.56-4.361-25.099-7.786-37.275l-13.816,3.889c-3.272-11.69-7.336-23.045-12.117-34.016l13.112-5.732
					c-5.065-11.588-10.978-22.936-17.596-33.741l-12.175,7.445c-6.284-10.311-13.264-20.157-20.869-29.467l11.029-9.012
					c-8.003-9.796-16.761-19.142-26.02-27.769l-9.687,10.398c-8.809-8.214-18.169-15.833-28.037-22.791l8.17-11.595
					c-10.354-7.307-21.311-13.953-32.551-19.766l-6.509,12.575c-10.652-5.522-21.732-10.34-33.167-14.382l4.716-13.337
					c-11.951-4.23-24.308-7.662-36.73-10.209l-2.837,13.845c-11.675-2.402-23.633-4.027-35.816-4.825l0.929-14.099
					c-12.582-0.834-25.454-0.813-38.029,0.051l0.972,14.098c-12.176,0.834-24.134,2.496-35.801,4.942l-2.881-13.845
					c-12.408,2.583-24.743,6.052-36.665,10.311l4.753,13.322c-11.428,4.078-22.487,8.925-33.117,14.476l-6.538-12.568
					c-11.211,5.841-22.138,12.517-32.471,19.845l8.199,11.573c-9.839,6.981-19.178,14.621-27.958,22.864l-9.716-10.376
					c-9.244,8.649-17.973,18.017-25.955,27.842l11.051,8.983c-7.583,9.339-14.534,19.207-20.796,29.54l-12.197-7.416
					c-6.589,10.833-12.48,22.218-17.516,33.828l13.134,5.696c-4.76,10.993-8.787,22.37-12.023,34.082l-13.837-3.853
					c-3.388,12.183-5.972,24.736-7.669,37.296l14.273,1.93c-1.56,11.595-2.358,23.423-2.358,35.439c0,0.189,0,0.385,0.007,0.573
					l-14.447,0.015c0.015,12.691,0.885,25.462,2.598,37.957l14.352-1.966c1.662,12.052,4.143,23.851,7.38,35.33l-13.982,3.925
					c3.417,12.19,7.72,24.257,12.785,35.874l13.344-5.819c4.847,11.08,10.427,21.754,16.682,31.977l-12.466,7.604
					c6.589,10.79,13.982,21.239,21.986,31.056l11.348-9.259c7.612,9.324,15.854,18.118,24.649,26.325l-9.999,10.717
					c9.259,8.642,19.192,16.725,29.525,24.025l8.475-12.001c9.803,6.922,20.099,13.184,30.824,18.735l-6.77,13.068
					c11.254,5.834,23.016,10.942,34.952,15.18l4.927-13.888c11.254,3.998,22.864,7.241,34.764,9.687l-2.975,14.44
					c12.372,2.554,25.063,4.274,37.717,5.123l0.979-14.723c5.914,0.399,11.878,0.602,17.894,0.602
					c6.102,0,12.154-0.203,18.155-0.617l1.001,14.715c12.662-0.856,25.345-2.59,37.717-5.159l-2.99-14.432
					c11.885-2.46,23.481-5.718,34.72-9.716l4.941,13.881c11.922-4.245,23.669-9.36,34.916-15.201l-6.784-13.061
					c10.71-5.551,20.999-11.82,30.787-18.742l8.49,11.994c10.325-7.3,20.252-15.39,29.503-24.032l-10.021-10.717
					c8.801-8.207,17.037-17.008,24.649-26.339l11.348,9.244c8.004-9.825,15.397-20.288,21.979-31.085l-12.473-7.597
					c6.255-10.238,11.828-20.927,16.667-32.021l13.351,5.805c5.057-11.624,9.353-23.706,12.763-35.91l-13.99-3.911
					c3.229-11.479,5.696-23.277,7.35-35.337l14.345,1.952c1.698-12.488,2.561-25.258,2.561-37.956v-0.515H2055.291z
					 M2032.972,1188.141c-3.12,11.109-6.98,21.899-11.53,32.326c-4.593,10.543-9.897,20.716-15.847,30.447
					c-5.972,9.796-12.604,19.149-19.831,28.001c-7.242,8.881-15.078,17.255-23.452,25.055c-8.352,7.808-17.241,15.042-26.601,21.645
					c-9.309,6.581-19.091,12.546-29.278,17.821c-10.093,5.246-20.593,9.825-31.441,13.671c-10.688,3.802-21.71,6.901-33.008,9.237
					c-11.073,2.293-22.414,3.86-33.973,4.636c-5.71,0.392-11.472,0.588-17.277,0.588c-5.725,0-11.399-0.189-17.03-0.566
					c-11.552-0.776-22.893-2.322-33.965-4.608c-11.312-2.329-22.349-5.413-33.051-9.215c-10.855-3.839-21.362-8.41-31.47-13.641
					c-10.202-5.282-19.99-11.24-29.314-17.821c-9.368-6.603-18.263-13.837-26.63-21.63c-8.374-7.793-16.21-16.159-23.459-25.033
					c-7.22-8.838-13.859-18.184-19.838-27.972c-5.95-9.716-11.254-19.875-15.854-30.403c-4.564-10.42-8.432-21.202-11.559-32.297
					c-3.077-10.913-5.435-22.131-7.024-33.588c-1.546-11.196-2.358-22.632-2.38-34.249c-0.007-0.189-0.007-0.377-0.007-0.566
					c0-11.428,0.762-22.682,2.242-33.704c1.531-11.472,3.846-22.704,6.871-33.632c3.084-11.131,6.915-21.95,11.436-32.398
					c4.564-10.572,9.839-20.767,15.767-30.526c5.95-9.832,12.56-19.214,19.773-28.103c7.227-8.918,15.049-17.32,23.415-25.164
					c8.352-7.837,17.24-15.107,26.601-21.754c9.317-6.617,19.105-12.611,29.3-17.922c10.108-5.282,20.622-9.883,31.484-13.765
					c10.703-3.831,21.747-6.951,33.073-9.309c11.102-2.315,22.465-3.904,34.053-4.695c5.805-0.406,11.66-0.61,17.567-0.61
					c5.652,0,11.261,0.189,16.82,0.551c11.588,0.769,22.958,2.315,34.06,4.593c11.341,2.329,22.407,5.427,33.131,9.222
					c10.877,3.853,21.413,8.432,31.535,13.685c10.224,5.282,20.034,11.261,29.372,17.857c9.389,6.618,18.3,13.874,26.674,21.688
					c8.38,7.822,16.232,16.203,23.473,25.099c7.234,8.86,13.866,18.227,19.845,28.03c5.942,9.738,11.24,19.903,15.833,30.454
					c4.55,10.427,8.41,21.231,11.523,32.34c3.062,10.92,5.406,22.146,6.973,33.617c1.538,11.196,2.337,22.625,2.344,34.242v0.203
					c0,11.726-0.805,23.27-2.358,34.568C2038.385,1166.01,2036.041,1177.228,2032.972,1188.141z"/>
			</g>
			<path style="fill:#3E95AB;" d="M1789.702,1358.391c-64.039,0-124.245-24.938-169.528-70.221
				c-45.282-45.283-70.221-105.489-70.221-169.528s24.938-124.245,70.221-169.527c45.283-45.283,105.489-70.221,169.528-70.221
				s124.245,24.938,169.527,70.221c45.282,45.282,70.221,105.488,70.221,169.527s-24.938,124.245-70.221,169.528
				C1913.947,1333.452,1853.741,1358.391,1789.702,1358.391z M1789.702,882.705c-130.096,0-235.937,105.841-235.937,235.937
				c0,130.096,105.841,235.937,235.937,235.937s235.936-105.84,235.936-235.937C2025.638,988.546,1919.798,882.705,1789.702,882.705
				z"/>
		</g>
	</g>
	<g id="Gear_05">
		<g>
			<g>
				
					<rect x="1360.213" y="616.425" transform="matrix(0.703 -0.7112 0.7112 0.703 -32.9454 1170.4064)" style="fill:#3386A7;" width="49.304" height="16.448"/>
				<g>
					<g>
						
							<rect x="1337.753" y="659.18" transform="matrix(0.7035 0.7107 -0.7107 0.7035 869.9268 -760.0432)" style="fill:#3386A7;" width="16.258" height="6.828"/>
						
							<rect x="1337.012" y="661.435" transform="matrix(0.7035 0.7107 -0.7107 0.7035 871.5447 -756.0418)" style="fill:#3386A7;" width="9.773" height="10.205"/>
						
							<rect x="1337.753" y="659.18" transform="matrix(0.7035 0.7107 -0.7107 0.7035 869.9268 -760.0432)" style="fill:#3386A7;" width="16.258" height="6.828"/>
						<g>
							<path style="fill:#3386A7;" d="M1342.664,677.754l0.009,0.009l-0.004-0.013l0.003-0.003l-0.006-0.006l-0.016-1.684
								c-0.024-2.555-1.043-4.999-2.84-6.815l0,0c-1.797-1.816-4.232-2.859-6.786-2.909l-1.684-0.033l-0.005-0.006l-0.003,0.003
								l-0.013-0.004l0.009,0.009l-5.742,5.684l-0.003-0.003l0.03,1.708c0.044,2.527,1.061,4.94,2.839,6.736l0.059,0.06
								c1.778,1.796,4.18,2.838,6.707,2.907l1.708,0.047l-0.003-0.003L1342.664,677.754z"/>
							
								<rect x="1325.134" y="675.903" transform="matrix(0.7035 0.7107 -0.7107 0.7035 876.9269 -743.688)" style="fill:#3386A7;" width="9.299" height="6.526"/>
						</g>
						<polygon style="fill:#3386A7;" points="1334.02,672.296 1314.203,691.913 1314.215,694.487 1316.869,694.606 
							1336.686,674.989 						"/>
					</g>
					<g>
						<polygon style="fill:#53E6E6;" points="1352.812,669.547 1339,655.594 1339.709,640.727 1367.685,668.989 						"/>
					</g>
					<g>
						<polygon style="fill:#53E6E6;" points="1368.452,625.428 1383.274,640.401 1385.582,653.319 1355.559,622.99 						"/>
					</g>
					
						<rect x="1339.805" y="633.255" transform="matrix(0.7035 0.7107 -0.7107 0.7035 863.1876 -776.6697)" style="fill:#3386A7;" width="45.269" height="25.897"/>
				</g>
			</g>
			<g>
				<path style="fill:#3386A7;" d="M1492.097,645.93c-3.582-1.075-6.866-2.718-9.735-4.892c-6.044-4.58-10.073-11.27-11.975-19.884
					c-3.657-16.562-13.045-27.18-26.439-29.894c-14.522-2.943-31.187,4.191-40.528,17.35l-2.327-1.652
					c9.973-14.05,27.829-21.655,43.422-18.494c14.566,2.948,24.743,14.344,28.658,32.075c4.659,21.097,21.412,23.822,28.399,24.014
					c14.38,0.395,28.4-7.597,31.254-17.816l2.748,0.768c-3.238,11.596-18.208,20.337-34.081,19.901
					C1498.204,647.315,1495.049,646.815,1492.097,645.93z"/>
				<g>
					
						<rect x="1447.256" y="628.591" transform="matrix(0.736 -0.6769 0.6769 0.736 -66.1822 1160.8622)" style="fill:#3386A7;" width="16.448" height="73.412"/>
					<g>
						<path style="fill:#53E6E6;" d="M1465.408,673.268l84.99-77.037c13.029-11.81,33.166-10.822,44.976,2.208h0
							c11.81,13.029,10.822,33.166-2.208,44.976l-84.99,77.037c-13.029,11.81-33.166,10.822-44.976-2.208l0,0
							C1451.39,705.214,1452.378,685.078,1465.408,673.268z"/>
						<g>
							<g>
								<path style="fill:#3386A7;" d="M1587.014,627.166c3.804-8.133,0.282-17.845-7.851-21.649
									c-8.133-3.804-17.845-0.282-21.649,7.851c-3.804,8.133-0.282,17.845,7.851,21.649
									C1573.498,638.821,1583.21,635.299,1587.014,627.166z"/>
							</g>
							<g>
								<path style="fill:#3386A7;" d="M1501.518,703.489c3.718-8.173,0.093-17.847-8.08-21.564
									c-8.173-3.718-17.847-0.093-21.565,8.08c-3.718,8.173-0.093,17.847,8.08,21.565
									C1488.126,715.287,1497.8,711.663,1501.518,703.489z"/>
							</g>
						</g>
					</g>
					<g>
						<path style="fill:#53E6E6;" d="M1431.108,664.972l-42.087-45.407c-6.452-6.961-6.039-17.834,0.922-24.286l0,0
							c6.961-6.452,17.834-6.039,24.286,0.922l42.087,45.407c6.452,6.961,6.039,17.834-0.922,24.286h0
							C1448.433,672.346,1437.56,671.933,1431.108,664.972z"/>
						<g>
							<g>
								<path style="fill:#3386A7;" d="M1404.785,601.185c-3.548-1.612-7.746-0.036-9.357,3.512
									c-1.612,3.548-0.036,7.745,3.512,9.357c3.548,1.612,7.745,0.036,9.357-3.511
									C1409.908,606.995,1408.333,602.797,1404.785,601.185z"/>
							</g>
						</g>
						<g>
							<g>
								<path style="fill:#3386A7;" d="M1447.159,648.048c-3.548-1.612-7.745-0.036-9.357,3.511
									c-1.612,3.548-0.036,7.746,3.511,9.357c3.548,1.612,7.746,0.036,9.357-3.511
									C1452.283,653.857,1450.707,649.66,1447.159,648.048z"/>
							</g>
						</g>
					</g>
				</g>
				<g>
					<path style="fill:#53E6E6;" d="M1494.816,700.441c2.037-4.477,0.051-9.777-4.427-11.814s-9.777-0.051-11.814,4.427
						c-2.037,4.478-0.051,9.777,4.427,11.814C1487.479,706.904,1492.779,704.918,1494.816,700.441z"/>
				</g>
			</g>
		</g>
		<g>
			<g>
				<path style="fill:#3E95AB;" d="M1673.508,690.987l-6.833-1.03l-16.748-2.383c3.549-24.841,2.306-50.779-4.434-76.59
					l23.181-6.051c-2.008-7.693-4.4-15.19-7.157-22.466c-7.438-19.641-17.522-37.708-29.725-53.817l-10.552,7.923l-8.578,6.451
					c-15.582-20.875-35.172-38.082-57.238-51.085l12.076-20.594c-24.364-14.271-51.536-23.87-79.968-27.896l-3.387,23.675
					c-24.841-3.549-50.779-2.306-76.598,4.434l-6.051-23.181c-28.449,7.429-54.2,20.151-76.275,36.891l14.373,19.13
					c-20.883,15.573-38.091,35.172-51.085,57.23l-20.594-12.076c-14.365,24.39-23.879,51.536-27.896,79.968l0.196,0.043l15.59,2.221
					l7.889,1.123c-3.549,24.841-2.289,50.872,4.425,76.598l-23.181,6.051c7.429,28.449,20.134,54.115,36.78,76.215l19.13-14.373
					c15.667,20.858,35.282,38.15,57.34,51.145l-12.067,20.594c24.364,14.28,51.443,23.905,79.883,27.921l0.783-5.268l2.596-18.407
					c24.849,3.549,50.872,2.289,76.683-4.451l6.051,23.181c28.449-7.429,54.115-20.135,76.198-36.865l-14.373-19.139
					c20.875-15.573,38.167-35.189,51.17-57.246l20.594,12.067c14.271-24.355,23.87-51.528,27.896-79.968L1673.508,690.987z
					 M1456.811,844.762c-101.898,0-184.496-82.606-184.496-184.504s82.598-184.504,184.496-184.504s184.504,82.606,184.504,184.504
					S1558.709,844.762,1456.811,844.762z"/>
			</g>
			<path style="fill:#3E95AB;" d="M1457.766,836.173c-97.6,0-177.003-79.403-177.003-177.003s79.403-177.003,177.003-177.003
				s177.003,79.403,177.003,177.003S1555.365,836.173,1457.766,836.173z M1457.766,484.982
				c-96.048,0-174.188,78.141-174.188,174.189c0,96.048,78.141,174.188,174.188,174.188s174.188-78.141,174.188-174.188
				C1631.954,563.123,1553.813,484.982,1457.766,484.982z"/>
		</g>
	</g>
	<g id="Gear_04">
		<g>
			<g>
				<rect x="1057.861" y="1790.348" style="fill:#317FA0;" width="19.53" height="90.008"/>
				<path style="fill:#53E6E6;" d="M1079.472,1852.887h-22.892c-4.063,3.307-6.654,8.335-6.644,13.964l0.043,16.47l36.177-0.066
					l-0.043-16.47C1086.104,1861.18,1083.517,1856.179,1079.472,1852.887z"/>
				<path style="fill:#317FA0;" d="M1054.731,1891.589L1054.731,1891.589c-4.892-4.146-12.398-2.155-14.541,3.857l-17.517,49.138
					c-0.473,1.328,0.089,2.807,1.328,3.494l0,0c1.318,0.73,2.97,0.328,3.795-0.924l28.691-43.531
					C1059.031,1899.761,1058.277,1894.594,1054.731,1891.589z"/>
				<path style="fill:#317FA0;" d="M1084.038,1889.858L1084.038,1889.858c5.345-3.543,12.565-0.684,13.988,5.538l11.626,50.855
					c0.314,1.374-0.418,2.777-1.729,3.313l0,0c-1.394,0.57-2.988-0.023-3.66-1.363l-23.381-46.6
					C1078.808,1897.469,1080.163,1892.426,1084.038,1889.858z"/>
				<g>
					<rect x="1046.81" y="1883.248" style="fill:#317FA0;" width="42.758" height="5.16"/>
					<path style="fill:#317FA0;" d="M1058.45,1888.947c0,2.301-1.875,4.166-4.188,4.166s-4.188-1.865-4.188-4.166
						s1.875-4.166,4.188-4.166S1058.45,1886.646,1058.45,1888.947z"/>
					<path style="fill:#317FA0;" d="M1086.153,1888.947c0,2.301-1.875,4.166-4.188,4.166s-4.188-1.865-4.188-4.166
						s1.875-4.166,4.188-4.166S1086.153,1886.646,1086.153,1888.947z"/>
				</g>
			</g>
			<g>
				<rect x="993.587" y="1775.44" style="fill:#317FA0;" width="73.781" height="29.804"/>
				<path style="fill:#53E6E6;" d="M1004.924,1822.966h-60.507c-18.018,0-32.624-14.606-32.624-32.624l0,0
					c0-18.018,14.606-32.624,32.624-32.624h60.507V1822.966z"/>
				<path style="fill:#53E6E6;" d="M1063.897,1822.966h-42.691v-65.248h42.691c18.018,0,32.624,14.606,32.624,32.624l0,0
					C1096.521,1808.36,1081.915,1822.966,1063.897,1822.966z"/>
				<path style="fill:#317FA0;" d="M1071.459,1805.915c-8.79,3.665-18.938-0.466-22.623-9.209
					c-3.685-8.743,0.469-18.838,9.259-22.503c8.79-3.665,18.939,0.466,22.623,9.209
					C1084.402,1792.155,1080.249,1802.25,1071.459,1805.915z M1060.907,1780.877c-5.089,2.122-7.494,7.967-5.361,13.03
					c2.133,5.062,8.01,7.454,13.099,5.332c5.09-2.122,7.495-7.967,5.361-13.029
					C1071.873,1781.147,1065.997,1778.755,1060.907,1780.877z"/>
			</g>
		</g>
		<g>
			<g>
				<g>
					<path style="fill:#3E95AB;" d="M1240.589,1857.436l-6.833-1.03l-16.748-2.383c3.549-24.841,2.306-50.779-4.434-76.59
						l23.181-6.051c-2.008-7.693-4.4-15.19-7.157-22.466c-7.438-19.641-17.522-37.708-29.725-53.817l-10.552,7.923l-8.578,6.451
						c-15.582-20.875-35.172-38.082-57.238-51.085l12.076-20.594c-24.364-14.271-51.536-23.87-79.968-27.896l-3.387,23.675
						c-24.841-3.549-50.779-2.306-76.598,4.434l-6.051-23.181c-28.449,7.429-54.2,20.151-76.275,36.891l14.373,19.13
						c-20.883,15.573-38.091,35.172-51.085,57.229L834.995,1716c-14.365,24.389-23.879,51.536-27.896,79.968l0.196,0.043
						l15.59,2.221l7.889,1.123c-3.549,24.84-2.289,50.872,4.425,76.598l-23.181,6.051c7.429,28.449,20.135,54.115,36.78,76.215
						l19.13-14.373c15.667,20.858,35.282,38.15,57.34,51.145l-12.067,20.594c24.364,14.28,51.443,23.905,79.883,27.921l0.783-5.268
						l2.596-18.407c24.849,3.549,50.873,2.289,76.683-4.451l6.051,23.181c28.449-7.429,54.115-20.135,76.198-36.865l-14.373-19.139
						c20.875-15.573,38.167-35.189,51.17-57.246l20.594,12.067c14.271-24.355,23.87-51.528,27.896-79.968L1240.589,1857.436z
						 M1023.891,2011.211c-101.898,0-184.496-82.606-184.496-184.504s82.598-184.504,184.496-184.504
						c101.898,0,184.504,82.606,184.504,184.504S1125.789,2011.211,1023.891,2011.211z"/>
				</g>
			</g>
			<path style="fill:#3E95AB;" d="M1023.809,2003.535c-97.6,0-177.003-79.403-177.003-177.003s79.403-177.003,177.003-177.003
				s177.003,79.403,177.003,177.003S1121.408,2003.535,1023.809,2003.535z M1023.809,1652.344
				c-96.048,0-174.189,78.141-174.189,174.188s78.141,174.188,174.189,174.188s174.188-78.141,174.188-174.188
				S1119.856,1652.344,1023.809,1652.344z"/>
		</g>
	</g>
	<g id="Gear_03">
		<g id="Machine">
			<g>
				<path style="fill:#53E6E6;" d="M995.648,578.296h142.166c4.967,0,8.994,4.027,8.994,8.994l0,0c0,4.967-4.027,8.994-8.994,8.994
					H995.648V578.296z"/>
				<rect x="1116.68" y="595.985" style="fill:#3895BD;" width="1.986" height="1.592"/>
				<rect x="1112.708" y="595.985" style="fill:#3895BD;" width="1.986" height="1.592"/>
				<rect x="1120.596" y="577.002" style="fill:#3895BD;" width="1.986" height="1.592"/>
				<rect x="1120.652" y="595.985" style="fill:#3895BD;" width="1.986" height="1.592"/>
				<rect x="1116.624" y="577.002" style="fill:#3895BD;" width="1.986" height="1.592"/>
				<rect x="1124.624" y="595.985" style="fill:#3895BD;" width="1.986" height="1.592"/>
				<rect x="1128.596" y="595.985" style="fill:#3895BD;" width="1.986" height="1.592"/>
				<rect x="1124.568" y="577.002" style="fill:#3895BD;" width="1.986" height="1.592"/>
				<rect x="1132.513" y="577.002" style="fill:#3895BD;" width="1.986" height="1.592"/>
				<rect x="1128.541" y="577.002" style="fill:#3895BD;" width="1.986" height="1.592"/>
				<rect x="1112.652" y="577.002" style="fill:#3895BD;" width="1.986" height="1.592"/>
				<rect x="1096.819" y="595.985" style="fill:#3895BD;" width="1.986" height="1.592"/>
				<rect x="1132.568" y="595.985" style="fill:#3895BD;" width="1.986" height="1.592"/>
				<rect x="1092.847" y="595.985" style="fill:#3895BD;" width="1.986" height="1.592"/>
				<rect x="1096.764" y="577.002" style="fill:#3895BD;" width="1.986" height="1.592"/>
				<rect x="1108.736" y="595.985" style="fill:#3895BD;" width="1.986" height="1.592"/>
				<rect x="1092.792" y="577.002" style="fill:#3895BD;" width="1.986" height="1.592"/>
				<rect x="1088.875" y="595.985" style="fill:#3895BD;" width="1.986" height="1.592"/>
				<rect x="1108.68" y="577.002" style="fill:#3895BD;" width="1.986" height="1.592"/>
				<rect x="1104.764" y="595.985" style="fill:#3895BD;" width="1.986" height="1.592"/>
				<rect x="1104.708" y="577.002" style="fill:#3895BD;" width="1.986" height="1.592"/>
				<rect x="1100.792" y="595.985" style="fill:#3895BD;" width="1.986" height="1.592"/>
				<rect x="1136.541" y="595.985" style="fill:#3895BD;" width="1.986" height="1.592"/>
				<rect x="1136.485" y="577.002" style="fill:#3895BD;" width="1.986" height="1.592"/>
				<rect x="1088.82" y="577.002" style="fill:#3895BD;" width="1.986" height="1.592"/>
				<rect x="1100.736" y="577.002" style="fill:#3895BD;" width="1.986" height="1.592"/>
				<rect x="1021.35" y="595.985" style="fill:#241F3C;" width="1.986" height="1.592"/>
				<rect x="1025.266" y="577.002" style="fill:#3895BD;" width="1.986" height="1.592"/>
				<rect x="1013.406" y="595.985" style="fill:#241F3C;" width="1.986" height="1.592"/>
				<rect x="1017.378" y="595.985" style="fill:#241F3C;" width="1.986" height="1.592"/>
				<rect x="1025.322" y="595.985" style="fill:#241F3C;" width="1.986" height="1.592"/>
				<rect x="1017.322" y="577.002" style="fill:#3895BD;" width="1.986" height="1.592"/>
				<rect x="1021.294" y="577.002" style="fill:#3895BD;" width="1.986" height="1.592"/>
				<rect x="1033.266" y="595.985" style="fill:#241F3C;" width="1.986" height="1.592"/>
				<rect x="1029.239" y="577.002" style="fill:#3895BD;" width="1.986" height="1.592"/>
				<rect x="1106.068" y="577.002" style="fill:#3895BD;" width="1.986" height="1.592"/>
				<rect x="1033.21" y="577.002" style="fill:#3895BD;" width="1.986" height="1.592"/>
				<rect x="1029.294" y="595.985" style="fill:#241F3C;" width="1.986" height="1.592"/>
				<rect x="1009.433" y="595.985" style="fill:#241F3C;" width="1.986" height="1.592"/>
				<rect x="1084.903" y="595.985" style="fill:#3895BD;" width="1.986" height="1.592"/>
				<path style="fill:#241F3C;" d="M998.777,588.213l-1.584,0.168c0.076,0.714,0.227,1.421,0.45,2.102l1.513-0.495
					C998.969,589.412,998.841,588.816,998.777,588.213z"/>
				<path style="fill:#3895BD;" d="M1003.866,579.356l-0.654-1.452c-0.652,0.294-1.277,0.658-1.855,1.082l0.941,1.284
					C1002.787,579.912,1003.315,579.605,1003.866,579.356z"/>
				<path style="fill:#241F3C;" d="M1000.951,581.49l-1.185-1.063c-0.479,0.534-0.903,1.119-1.26,1.739l1.38,0.795
					C1000.187,582.437,1000.546,581.942,1000.951,581.49z"/>
				<path style="fill:#241F3C;" d="M999.148,584.62l-1.515-0.49c-0.221,0.681-0.369,1.389-0.443,2.104l1.584,0.162
					C998.836,585.793,998.962,585.195,999.148,584.62z"/>
				<path style="fill:#241F3C;" d="M1001.384,595.614c0.58,0.422,1.206,0.784,1.86,1.076l0.649-1.454
					c-0.552-0.247-1.081-0.553-1.572-0.909L1001.384,595.614z"/>
				<rect x="1013.35" y="577.002" style="fill:#3895BD;" width="1.986" height="1.592"/>
				<rect x="1009.378" y="577.002" style="fill:#3895BD;" width="1.986" height="1.592"/>
				<rect x="1106.013" y="595.985" style="fill:#3895BD;" width="1.986" height="1.592"/>
				<path style="fill:#3895BD;" d="M1007.395,578.594l-0.005-1.592c-0.719,0.003-1.437,0.08-2.135,0.23l0.335,1.557
					C1006.179,578.662,1006.786,578.597,1007.395,578.594z"/>
				<path style="fill:#241F3C;" d="M1005.618,595.797l-0.33,1.558c0.698,0.148,1.417,0.223,2.136,0.223h0.023v-1.592h-0.023
					C1006.815,595.985,1006.208,595.922,1005.618,595.797z"/>
				<path style="fill:#241F3C;" d="M998.522,592.443c0.359,0.619,0.785,1.202,1.266,1.734l1.182-1.067
					c-0.406-0.45-0.767-0.944-1.071-1.467L998.522,592.443z"/>
				<rect x="1069.015" y="595.985" style="fill:#3895BD;" width="1.986" height="1.592"/>
				<rect x="1072.931" y="577.002" style="fill:#3895BD;" width="1.986" height="1.592"/>
				<rect x="1064.987" y="577.002" style="fill:#3895BD;" width="1.986" height="1.592"/>
				<rect x="1065.043" y="595.985" style="fill:#3895BD;" width="1.986" height="1.592"/>
				<rect x="1072.987" y="595.985" style="fill:#3895BD;" width="1.986" height="1.592"/>
				<rect x="1068.959" y="577.002" style="fill:#3895BD;" width="1.986" height="1.592"/>
				<rect x="1084.848" y="577.002" style="fill:#3895BD;" width="1.986" height="1.592"/>
				<rect x="1080.931" y="595.985" style="fill:#3895BD;" width="1.986" height="1.592"/>
				<rect x="1080.876" y="577.002" style="fill:#3895BD;" width="1.986" height="1.592"/>
				<rect x="1076.903" y="577.002" style="fill:#3895BD;" width="1.986" height="1.592"/>
				<rect x="1076.959" y="595.985" style="fill:#3895BD;" width="1.986" height="1.592"/>
				<rect x="1057.099" y="595.985" style="fill:#3895BD;" width="1.986" height="1.592"/>
				<rect x="1049.155" y="595.985" style="fill:#3895BD;" width="1.986" height="1.592"/>
				<rect x="1049.099" y="577.002" style="fill:#3895BD;" width="1.986" height="1.592"/>
				<rect x="1045.182" y="595.985" style="fill:#3895BD;" width="1.986" height="1.592"/>
				<rect x="1102.041" y="595.985" style="fill:#3895BD;" width="1.986" height="1.592"/>
				<rect x="1045.127" y="577.002" style="fill:#3895BD;" width="1.986" height="1.592"/>
				<rect x="1061.015" y="577.002" style="fill:#3895BD;" width="1.986" height="1.592"/>
				<rect x="1053.071" y="577.002" style="fill:#3895BD;" width="1.986" height="1.592"/>
				<rect x="1061.071" y="595.985" style="fill:#3895BD;" width="1.986" height="1.592"/>
				<rect x="1102.096" y="577.002" style="fill:#3895BD;" width="1.986" height="1.592"/>
				<rect x="1053.126" y="595.985" style="fill:#3895BD;" width="1.986" height="1.592"/>
				<rect x="1041.173" y="595.985" style="fill:#3895BD;" width="1.986" height="1.592"/>
				<rect x="1033.229" y="595.985" style="fill:#3895BD;" width="1.986" height="1.592"/>
				<rect x="1029.257" y="595.985" style="fill:#3895BD;" width="1.986" height="1.592"/>
				<rect x="1037.201" y="595.985" style="fill:#3895BD;" width="1.986" height="1.592"/>
				<rect x="1057.043" y="577.002" style="fill:#3895BD;" width="1.986" height="1.592"/>
				<rect x="1033.03" y="577.002" style="fill:#3895BD;" width="1.986" height="1.592"/>
				<rect x="1029.058" y="577.002" style="fill:#3895BD;" width="1.986" height="1.592"/>
				<rect x="1037.002" y="577.002" style="fill:#3895BD;" width="1.986" height="1.592"/>
				<rect x="1040.975" y="577.002" style="fill:#3895BD;" width="1.986" height="1.592"/>
				<path style="fill:#3895BD;" d="M995.648,595.487h142.166c4.52,0,8.198-3.677,8.198-8.198c0-4.52-3.677-8.198-8.198-8.198
					H995.648V577.5h142.166c5.398,0,9.79,4.392,9.79,9.79c0,5.398-4.392,9.79-9.79,9.79H995.648V595.487z"/>
				<g>
					<path style="fill:#312A52;" d="M1004.88,583.583c-1.948,1.69-2.158,4.639-0.468,6.587c1.69,1.948,4.639,2.158,6.587,0.469
						c1.949-1.69,2.158-4.639,0.469-6.587C1009.778,582.103,1006.828,581.893,1004.88,583.583z M1009.769,589.22
						c-1.165,1.01-2.929,0.885-3.939-0.281c-1.01-1.165-0.885-2.929,0.28-3.939c1.165-1.01,2.929-0.885,3.939,0.28
						C1011.059,586.446,1010.934,588.21,1009.769,589.22z"/>
				</g>
				<path style="fill:#3895BD;" d="M1053.602,583.583c-1.948,1.69-2.158,4.639-0.469,6.587c1.69,1.948,4.639,2.158,6.587,0.469
					c1.949-1.69,2.158-4.639,0.469-6.587C1058.5,582.103,1055.551,581.893,1053.602,583.583z M1058.491,589.22
					c-1.165,1.01-2.929,0.885-3.939-0.281c-1.01-1.165-0.885-2.929,0.28-3.939c1.165-1.01,2.929-0.885,3.939,0.28
					C1059.781,586.446,1059.656,588.21,1058.491,589.22z"/>
				<path style="fill:#3895BD;" d="M1102.324,583.583c-1.948,1.69-2.158,4.639-0.468,6.587c1.689,1.948,4.639,2.158,6.587,0.469
					c1.949-1.69,2.158-4.639,0.469-6.587C1107.222,582.103,1104.273,581.893,1102.324,583.583z M1107.213,589.22
					c-1.165,1.01-2.928,0.885-3.939-0.281c-1.01-1.165-0.885-2.929,0.28-3.939c1.165-1.01,2.929-0.885,3.939,0.28
					C1108.504,586.446,1108.378,588.21,1107.213,589.22z"/>
				<g>
					<rect x="907.717" y="578.296" style="fill:#53E6E6;" width="79.681" height="17.988"/>
					<rect x="951.275" y="595.985" style="fill:#3895BD;" width="1.986" height="1.592"/>
					<rect x="923.415" y="577.002" style="fill:#3895BD;" width="1.986" height="1.592"/>
					<rect x="931.359" y="577.002" style="fill:#3895BD;" width="1.986" height="1.592"/>
					<rect x="939.359" y="595.985" style="fill:#3895BD;" width="1.986" height="1.592"/>
					<rect x="935.387" y="595.985" style="fill:#3895BD;" width="1.986" height="1.592"/>
					<rect x="935.331" y="577.002" style="fill:#3895BD;" width="1.986" height="1.592"/>
					<rect x="931.415" y="595.985" style="fill:#3895BD;" width="1.986" height="1.592"/>
					<rect x="939.303" y="577.002" style="fill:#3895BD;" width="1.986" height="1.592"/>
					<rect x="947.303" y="595.985" style="fill:#3895BD;" width="1.986" height="1.592"/>
					<rect x="943.275" y="577.002" style="fill:#3895BD;" width="1.986" height="1.592"/>
					<rect x="951.22" y="577.002" style="fill:#3895BD;" width="1.986" height="1.592"/>
					<rect x="943.331" y="595.985" style="fill:#3895BD;" width="1.986" height="1.592"/>
					<rect x="947.247" y="577.002" style="fill:#3895BD;" width="1.986" height="1.592"/>
					<rect x="927.387" y="577.002" style="fill:#3895BD;" width="1.986" height="1.592"/>
					<rect x="915.471" y="577.002" style="fill:#3895BD;" width="1.986" height="1.592"/>
					<rect x="911.554" y="595.985" style="fill:#3895BD;" width="1.986" height="1.592"/>
					<rect x="907.717" y="595.985" style="fill:#3895BD;" width="1.851" height="1.592"/>
					<rect x="911.499" y="577.002" style="fill:#3895BD;" width="1.986" height="1.592"/>
					<rect x="915.526" y="595.985" style="fill:#3895BD;" width="1.986" height="1.592"/>
					<rect x="907.717" y="577.002" style="fill:#3895BD;" width="1.795" height="1.592"/>
					<rect x="927.443" y="595.985" style="fill:#3895BD;" width="1.986" height="1.592"/>
					<rect x="923.471" y="595.985" style="fill:#3895BD;" width="1.986" height="1.592"/>
					<rect x="919.499" y="595.985" style="fill:#3895BD;" width="1.986" height="1.592"/>
					<rect x="919.443" y="577.002" style="fill:#3895BD;" width="1.986" height="1.592"/>
					<rect x="963.136" y="577.002" style="fill:#3895BD;" width="1.986" height="1.592"/>
					<rect x="986.968" y="577.002" style="fill:#3895BD;" width="0.429" height="1.592"/>
					<rect x="979.024" y="577.002" style="fill:#3895BD;" width="1.986" height="1.592"/>
					<rect x="987.024" y="595.985" style="fill:#3895BD;" width="0.374" height="1.592"/>
					<rect x="982.996" y="577.002" style="fill:#3895BD;" width="1.986" height="1.592"/>
					<rect x="979.08" y="595.985" style="fill:#3895BD;" width="1.986" height="1.592"/>
					<rect x="955.192" y="577.002" style="fill:#3895BD;" width="1.986" height="1.592"/>
					<rect x="963.192" y="595.985" style="fill:#3895BD;" width="1.986" height="1.592"/>
					<rect x="959.22" y="595.985" style="fill:#3895BD;" width="1.986" height="1.592"/>
					<rect x="959.164" y="577.002" style="fill:#3895BD;" width="1.986" height="1.592"/>
					<rect x="955.247" y="595.985" style="fill:#3895BD;" width="1.986" height="1.592"/>
					<rect x="971.136" y="595.985" style="fill:#3895BD;" width="1.986" height="1.592"/>
					<rect x="975.108" y="595.985" style="fill:#3895BD;" width="1.986" height="1.592"/>
					<rect x="975.052" y="577.002" style="fill:#3895BD;" width="1.986" height="1.592"/>
					<rect x="967.108" y="577.002" style="fill:#3895BD;" width="1.986" height="1.592"/>
					<rect x="967.164" y="595.985" style="fill:#3895BD;" width="1.986" height="1.592"/>
					<rect x="971.08" y="577.002" style="fill:#3895BD;" width="1.986" height="1.592"/>
					<rect x="983.052" y="595.985" style="fill:#3895BD;" width="1.986" height="1.592"/>
					<rect x="907.717" y="595.487" style="fill:#3895BD;" width="79.681" height="1.592"/>
					<rect x="907.717" y="577.5" style="fill:#3895BD;" width="79.681" height="1.592"/>
					<rect x="907.717" y="595.487" style="fill:#3895BD;" width="77.695" height="1.592"/>
					<rect x="907.717" y="577.5" style="fill:#3895BD;" width="77.695" height="1.592"/>
					<g>
						<path style="fill:#3895BD;" d="M922.088,583.583c-1.948,1.69-2.158,4.639-0.468,6.587c1.69,1.948,4.639,2.158,6.587,0.469
							c1.949-1.69,2.158-4.639,0.469-6.587C926.986,582.103,924.037,581.893,922.088,583.583z M926.977,589.22
							c-1.165,1.01-2.928,0.885-3.939-0.281c-1.01-1.165-0.885-2.929,0.28-3.939c1.165-1.01,2.929-0.885,3.939,0.28
							C928.268,586.446,928.142,588.21,926.977,589.22z"/>
					</g>
					<g>
						<path style="fill:#3895BD;" d="M970.81,583.583c-1.948,1.69-2.158,4.639-0.468,6.587c1.69,1.948,4.639,2.158,6.587,0.469
							c1.949-1.69,2.158-4.639,0.469-6.587C975.708,582.103,972.759,581.893,970.81,583.583z M975.699,589.22
							c-1.165,1.01-2.929,0.885-3.939-0.281c-1.01-1.165-0.885-2.929,0.28-3.939c1.165-1.01,2.929-0.885,3.939,0.28
							C976.99,586.446,976.864,588.21,975.699,589.22z"/>
					</g>
				</g>
			</g>
			<rect x="991.632" y="531.238" style="fill:#3895BD;" width="43.68" height="106.094"/>
			<g>
				<rect x="945.086" y="501.5" style="fill:#3895BD;" width="73.076" height="5.485"/>
				<path style="fill:#53E6E6;" d="M1024.136,637.331V509.014c0-2.042-1.655-3.697-3.697-3.697h-76.767
					c-2.042,0-3.697,1.655-3.697,3.697v128.318H1024.136z"/>
				<g>
					<rect x="945.829" y="606" style="fill:#3895BD;" width="2.892" height="22.912"/>
					<rect x="951.444" y="606" style="fill:#3895BD;" width="2.892" height="22.912"/>
					<rect x="957.058" y="606" style="fill:#3895BD;" width="2.892" height="22.912"/>
					<rect x="962.672" y="606" style="fill:#3895BD;" width="2.892" height="22.912"/>
					<rect x="968.286" y="606" style="fill:#3895BD;" width="2.892" height="22.912"/>
					<rect x="973.901" y="606" style="fill:#3895BD;" width="2.892" height="22.912"/>
					<rect x="979.515" y="606" style="fill:#3895BD;" width="2.892" height="22.912"/>
				</g>
				<rect x="945.284" y="511.371" style="fill:#3895BD;" width="73.37" height="78.108"/>
				<g>
					<g>
						<circle style="fill:#53E6E6;" cx="969.15" cy="559.474" r="9.075"/>
						<g>
							<path style="fill:#3895BD;" d="M962.926,554.169l3.081,2.911c-0.532,0.669-0.855,1.511-0.87,2.427h-4.233
								C960.922,557.465,961.681,555.6,962.926,554.169z"/>
							<path style="fill:#3895BD;" d="M963.623,553.457c1.42-1.284,3.289-2.08,5.344-2.124l-0.058,4.236
								c-0.821,0.049-1.576,0.343-2.191,0.813L963.623,553.457z"/>
							<path style="fill:#3895BD;" d="M974.79,553.562l-3.036,2.96c-0.518-0.443-1.151-0.755-1.848-0.889l0.058-4.263
								C971.823,551.552,973.502,552.352,974.79,553.562z"/>
							<path style="fill:#3895BD;" d="M977.394,559.507h-4.232c-0.015-0.838-0.285-1.612-0.737-2.25l3.049-2.972
								C976.66,555.701,977.377,557.52,977.394,559.507z"/>
						</g>
					</g>
					<g>
						<circle style="fill:#53E6E6;" cx="994.68" cy="559.474" r="9.075"/>
						<g>
							<path style="fill:#3895BD;" d="M988.457,554.169l3.081,2.911c-0.533,0.669-0.855,1.511-0.87,2.427h-4.233
								C986.452,557.465,987.212,555.6,988.457,554.169z"/>
							<path style="fill:#3895BD;" d="M989.153,553.457c1.42-1.284,3.289-2.08,5.344-2.124l-0.058,4.236
								c-0.821,0.049-1.576,0.343-2.19,0.813L989.153,553.457z"/>
							<path style="fill:#3895BD;" d="M1000.32,553.562l-3.037,2.96c-0.519-0.443-1.152-0.755-1.848-0.889l0.058-4.263
								C997.353,551.552,999.032,552.352,1000.32,553.562z"/>
							<path style="fill:#3895BD;" d="M1002.925,559.507h-4.232c-0.015-0.838-0.285-1.612-0.737-2.25l3.048-2.972
								C1002.19,555.701,1002.908,557.52,1002.925,559.507z"/>
						</g>
					</g>
					<rect x="954.589" y="521.546" style="fill:#53E6E6;" width="54.074" height="20.329"/>
				</g>
				<rect x="961.69" y="576.357" style="fill:#53E6E6;" width="4.93" height="4.93"/>
				<rect x="969.13" y="576.357" style="fill:#53E6E6;" width="4.93" height="4.93"/>
				<rect x="976.57" y="576.357" style="fill:#53E6E6;" width="4.93" height="4.93"/>
				<rect x="984.011" y="576.357" style="fill:#53E6E6;" width="4.93" height="4.93"/>
				<rect x="991.451" y="576.357" style="fill:#53E6E6;" width="4.93" height="4.93"/>
				<rect x="998.891" y="576.357" style="fill:#53E6E6;" width="4.93" height="4.93"/>
			</g>
			<g>
				<rect x="1054.523" y="556.812" style="fill:#3895BD;" width="23" height="20.19"/>
				<rect x="1061.456" y="556.812" style="fill:#3895BD;" width="23" height="20.19"/>
				<rect x="1071.042" y="556.812" style="fill:#53E6E6;" width="2.484" height="4.074"/>
				<g>
					<rect x="1077.633" y="573.257" style="fill:#53E6E6;" width="2.392" height="2.285"/>
					<rect x="1080.949" y="573.257" style="fill:#53E6E6;" width="2.392" height="2.285"/>
					<rect x="1074.295" y="573.257" style="fill:#53E6E6;" width="2.392" height="2.285"/>
				</g>
			</g>
			<g>
				<rect x="1095.063" y="556.812" style="fill:#3895BD;" width="23" height="20.19"/>
				<rect x="1101.996" y="556.812" style="fill:#3895BD;" width="23" height="20.19"/>
				<rect x="1111.583" y="556.812" style="fill:#53E6E6;" width="2.484" height="4.074"/>
				<g>
					<rect x="1118.173" y="573.257" style="fill:#53E6E6;" width="2.392" height="2.285"/>
					<rect x="1121.489" y="573.257" style="fill:#53E6E6;" width="2.392" height="2.285"/>
					<rect x="1114.835" y="573.257" style="fill:#53E6E6;" width="2.392" height="2.285"/>
				</g>
			</g>
		</g>
		<g>
			<g>
				<path style="fill:#3E95AB;" d="M1186.62,582.745l-5.09-0.767l-12.474-1.775c2.643-18.501,1.718-37.82-3.302-57.043l17.265-4.506
					c-1.496-5.73-3.277-11.314-5.33-16.733c-5.539-14.628-13.05-28.084-22.139-40.082l-7.859,5.901l-6.389,4.804
					c-11.605-15.547-26.195-28.363-42.63-38.048l8.994-15.338c-18.146-10.629-38.384-17.778-59.559-20.776l-2.523,17.633
					c-18.501-2.643-37.82-1.718-57.049,3.302l-4.506-17.265c-21.188,5.533-40.367,15.009-56.809,27.476l10.705,14.248
					c-15.554,11.599-28.37,26.195-38.048,42.624l-15.338-8.994c-10.699,18.165-17.785,38.384-20.776,59.559l0.146,0.032
					l11.612,1.654l5.875,0.837c-2.643,18.501-1.705,37.889,3.296,57.049l-17.265,4.506c5.533,21.188,14.996,40.304,27.393,56.764
					l14.248-10.705c11.669,15.535,26.278,28.414,42.706,38.092l-8.987,15.338c18.146,10.635,38.314,17.804,59.496,20.795
					l0.583-3.923l1.933-13.709c18.507,2.643,37.889,1.705,57.113-3.315l4.506,17.265c21.188-5.533,40.304-14.996,56.752-27.457
					l-10.705-14.255c15.547-11.599,28.426-26.208,38.111-42.636l15.338,8.987c10.629-18.14,17.778-38.377,20.776-59.559
					L1186.62,582.745z M1025.225,697.275c-75.893,0-137.411-61.524-137.411-137.417s61.518-137.417,137.411-137.417
					s137.417,61.524,137.417,137.417S1101.118,697.275,1025.225,697.275z"/>
			</g>
			<g>
				<path style="fill:#3E95AB;" d="M1178.026,616.636l-4.809-1.835l-11.808-4.394c6.528-17.512,9.743-36.583,8.938-56.435
					l17.829-0.721c-0.239-5.917-0.789-11.752-1.639-17.484c-2.293-15.473-6.761-30.221-13.082-43.882l-8.937,4.089l-7.266,3.331
					c-8.023-17.665-19.545-33.297-33.536-46.264l12.058-13.067c-15.462-14.254-33.709-25.555-53.759-33l-6.225,16.689
					c-17.512-6.528-36.583-9.743-56.441-8.94l-0.721-17.829c-21.881,0.887-42.64,6.055-61.361,14.729l7.42,16.203
					c-17.669,8.015-33.303,19.543-46.262,33.53L905.357,449.3c-14.326,15.466-25.561,33.708-33,53.759l0.136,0.062l10.992,4.092
					l5.562,2.07c-6.528,17.512-9.746,36.654-8.946,56.44l-17.829,0.721c0.888,21.881,6.056,42.575,14.658,61.3l16.203-7.42
					c8.087,17.666,19.614,33.364,33.601,46.323l-12.052,13.069c15.461,14.26,33.636,25.565,53.693,33.005l1.406-3.709l4.812-12.982
					c17.518,6.529,36.654,9.746,56.506,8.941l0.721,17.829c21.881-0.887,42.575-6.056,61.301-14.723l-7.419-16.209
					c17.663-8.016,33.361-19.543,46.327-33.529l13.069,12.052c14.253-15.456,25.554-33.703,33-53.759L1178.026,616.636z
					 M995.921,694.114c-74.147-16.184-121.13-89.412-104.945-163.559c16.184-74.147,89.407-121.137,163.554-104.953
					c74.147,16.184,121.136,89.413,104.952,163.56C1143.297,663.309,1070.068,710.298,995.921,694.114z"/>
			</g>
		</g>
	</g>
	<g id="Gear_02">
		<g>
			<g>
				<path style="fill:#3E95AB;" d="M646.64,1336.912l-5-0.753l-12.254-1.743c2.597-18.175,1.688-37.154-3.244-56.038l16.961-4.427
					c-1.469-5.629-3.219-11.114-5.236-16.438c-5.442-14.371-12.82-27.59-21.749-39.376l-7.721,5.797l-6.276,4.72
					c-11.401-15.274-25.734-27.864-41.88-37.378l8.836-15.068c-17.827-10.442-37.708-17.465-58.51-20.411l-2.478,17.322
					c-18.175-2.596-37.154-1.687-56.045,3.244l-4.427-16.961c-20.815,5.436-39.657,14.744-55.808,26.992l10.516,13.997
					c-15.28,11.394-27.87,25.734-37.378,41.873l-15.068-8.835c-10.51,17.845-17.472,37.708-20.411,58.51l0.143,0.031l11.407,1.625
					l5.772,0.822c-2.596,18.175-1.675,37.222,3.238,56.045l-16.961,4.427c5.436,20.815,14.732,39.594,26.911,55.765l13.997-10.517
					c11.463,15.261,25.815,27.913,41.954,37.421l-8.829,15.068c17.826,10.448,37.639,17.49,58.448,20.429l0.573-3.854l1.899-13.468
					c18.181,2.596,37.222,1.675,56.107-3.257l4.427,16.961c20.815-5.436,39.594-14.732,55.752-26.973l-10.517-14.003
					c15.273-11.395,27.926-25.747,37.44-41.886l15.068,8.829c10.442-17.82,17.465-37.701,20.41-58.51L646.64,1336.912z
					 M488.088,1449.425c-74.556,0-134.99-60.441-134.99-134.997s60.434-134.997,134.99-134.997s134.997,60.441,134.997,134.997
					S562.644,1449.425,488.088,1449.425z"/>
			</g>
		</g>
		<g>
			<path style="fill:#3895BD;" d="M503.194,1250.503c0.241,0.169,5.961,4.218,10.397,10.764c6.058,8.938,6.757,18.163,2.023,26.678
				c-3.458,6.22-8.746,10.414-15.291,12.131c-7.549,1.98-15.427,0.226-18.375-1.583l2.145-3.495
				c1.965,1.206,8.648,2.828,15.19,1.112c5.515-1.446,9.804-4.864,12.747-10.157c3.989-7.173,3.372-14.704-1.833-22.384
				c-4.018-5.928-9.304-9.67-9.357-9.707L503.194,1250.503z"/>
			
				<rect x="465.519" y="1256.331" transform="matrix(0.884 -0.4674 0.4674 0.884 -541.9384 367.6094)" style="fill:#3895BD;" width="8.847" height="39.485"/>
			
				<rect x="476.33" y="1317.982" transform="matrix(0.0108 -0.9999 0.9999 0.0108 -838.0475 1797.624)" style="fill:#3895BD;" width="26.519" height="8.847"/>
			<g>
				<path style="fill:#53E6E6;" d="M459.901,1270.508l61.696,0.002c9.458,0,17.126-7.667,17.126-17.125l0,0
					c0-9.458-7.667-17.126-17.125-17.126l-61.696-0.002c-9.458,0-17.126,7.667-17.126,17.125l0,0
					C442.776,1262.84,450.443,1270.508,459.901,1270.508z"/>
				<g>
					<g>
						<path style="fill:#3895BD;" d="M513.552,1249.647c-1.867,4.454,0.237,9.596,4.691,11.463
							c4.454,1.867,9.596-0.237,11.463-4.691c1.867-4.454-0.237-9.596-4.691-11.463S515.419,1245.193,513.552,1249.647z"/>
					</g>
					<g>
						<path style="fill:#3895BD;" d="M451.863,1249.99c-1.914,4.434,0.135,9.598,4.569,11.512c4.434,1.914,9.598-0.135,11.512-4.569
							c1.914-4.434-0.135-9.598-4.569-11.513C458.941,1243.507,453.777,1245.557,451.863,1249.99z"/>
					</g>
				</g>
			</g>
			<g>
				<path style="fill:#53E6E6;" d="M465.724,1288.486l15.449,29.499c2.368,4.522,7.954,6.268,12.477,3.9l0,0
					c4.522-2.368,6.268-7.954,3.9-12.477l-15.449-29.499c-2.368-4.522-7.954-6.268-12.477-3.9l0,0
					C465.102,1278.377,463.355,1283.964,465.724,1288.486z"/>
				<g>
					<g>
						<path style="fill:#3895BD;" d="M489.213,1309.836c-2.088,0.179-3.642,2.024-3.462,4.112c0.179,2.088,2.024,3.641,4.112,3.463
							c2.088-0.179,3.642-2.024,3.462-4.112C493.146,1311.21,491.301,1309.657,489.213,1309.836z"/>
					</g>
				</g>
				<g>
					<g>
						<path style="fill:#3895BD;" d="M473.077,1279.93c-2.088,0.179-3.641,2.024-3.462,4.112c0.179,2.088,2.024,3.641,4.112,3.463
							c2.088-0.179,3.642-2.024,3.463-4.112C477.01,1281.304,475.165,1279.751,473.077,1279.93z"/>
					</g>
				</g>
			</g>
			<g>
				<g>
					<path style="fill:#3895BD;" d="M447.259,1353.29v36.223c0.277,2.323,1.725,3.333,4.42,2.947v-39.169H447.259z"/>
					<polygon style="fill:#3895BD;" points="436.824,1353.29 449.441,1365.906 449.441,1353.29 					"/>
				</g>
				<g>
					<path style="fill:#3895BD;" d="M527.731,1353.29v39.169c2.695,0.387,4.143-0.623,4.42-2.947v-36.223H527.731z"/>
					<polygon style="fill:#3895BD;" points="528.926,1353.29 528.926,1365.906 541.542,1353.29 					"/>
				</g>
				<g>
					<path style="fill:#53E6E6;" d="M495.43,1331.56h-10.802c-1.917,1.569-3.14,3.954-3.135,6.625l0.02,11.319l17.072-0.031
						l-0.02-11.319C498.559,1335.494,497.339,1333.122,495.43,1331.56z"/>
					<path style="fill:#53E6E6;" d="M540.846,1353.877H437.737c-1.597,0-2.892-1.295-2.892-2.892l0,0
						c0-1.597,1.295-2.892,2.892-2.892h103.109c1.597,0,2.892,1.295,2.892,2.892l0,0
						C543.738,1352.583,542.443,1353.877,540.846,1353.877z"/>
					<path style="fill:#3895BD;" d="M495.25,1339.391c0,2.878-2.333,5.211-5.211,5.211c-2.878,0-5.211-2.333-5.211-5.211
						c0-2.878,2.333-5.211,5.211-5.211C492.916,1334.179,495.25,1336.512,495.25,1339.391z"/>
					<circle style="fill:#53E6E6;" cx="489.981" cy="1339.391" r="2.488"/>
				</g>
			</g>
		</g>
		<g>
			<g>
				<path style="fill:#3E95AB;" d="M642.211,1357.904l-4.854-1.415l-11.911-3.366c5.003-17.665,6.639-36.594,4.276-55.969
					l17.401-2.12c-0.704-5.775-1.704-11.445-2.992-16.99c-3.472-14.969-9.017-29.056-16.291-41.93l-8.426,4.713l-6.851,3.839
					c-9.257-16.661-21.779-31.053-36.508-42.64l10.77-13.752c-16.271-12.731-35.035-22.349-55.257-28.048l-4.771,16.835
					c-17.665-5.003-36.595-6.639-55.975-4.276l-2.12-17.401c-21.355,2.605-41.271,9.311-58.915,19.29l8.551,15.277
					c-16.666,9.25-31.06,21.778-42.639,36.501l-13.752-10.77c-12.801,16.28-22.355,35.034-28.048,55.257l0.138,0.05l11.087,3.135
					l5.61,1.586c-5.003,17.665-6.635,36.664-4.283,55.975l-17.401,2.12c2.605,21.355,9.307,41.208,19.215,58.861l15.277-8.551
					c9.32,16.656,21.852,31.114,36.576,42.693l-10.764,13.753c16.27,12.737,34.963,22.365,55.193,28.059l1.083-3.743l3.682-13.093
					c17.671,5.003,36.664,6.635,56.039,4.273l2.12,17.401c21.355-2.605,41.208-9.307,58.857-19.279l-8.55-15.283
					c16.659-9.251,31.117-21.783,42.703-36.505l13.753,10.764c12.73-16.265,22.348-35.029,28.048-55.257L642.211,1357.904z
					 M470.043,1448.214c-73.887-9.966-125.7-77.942-115.734-151.829s77.937-125.707,151.824-115.741
					c73.887,9.966,125.706,77.943,115.74,151.83C611.907,1406.36,543.93,1458.179,470.043,1448.214z"/>
			</g>
		</g>
	</g>
	<g id="Gear_01">
		<g>
			<path style="fill:#317FA0;" d="M1010.873,1284.841l-2.06-1.675c18.106-22.259,25.479-40.824,22.539-56.755
				c-4.001-21.686-26.807-34.835-46.928-46.436c-11.295-6.512-21.964-12.664-27.99-19.641c-4.522-5.236-6.396-10.906-5.57-16.854
				c1.874-13.492,16.918-23.542,17.558-23.963l1.461,2.217c-0.147,0.097-14.688,9.823-16.39,22.119
				c-0.714,5.155,0.952,10.116,4.95,14.745c5.732,6.637,16.212,12.679,27.307,19.076c20.619,11.888,43.989,25.362,48.213,48.255
				C1037.053,1242.672,1029.5,1261.942,1010.873,1284.841z"/>
			<path style="fill:#317FA0;" d="M852.558,1136.702c-0.332-0.687-8.151-17.065-9.917-37.47
				c-2.411-27.86,7.656-49.603,29.115-62.878c15.674-9.697,32.927-12.505,49.895-8.121c19.568,5.056,35.168,18.971,39.55,26.783
				l-9.263,5.195c-2.921-5.208-15.983-17.314-32.943-21.695c-14.296-3.694-28.31-1.383-41.651,6.87
				c-18.077,11.183-26.193,28.991-24.121,52.93c1.599,18.479,8.826,33.615,8.899,33.765L852.558,1136.702z"/>
			
				<rect x="941.788" y="1053.557" transform="matrix(0.866 -0.5 0.5 0.866 -400.6511 619.9767)" style="fill:#317FA0;" width="29.56" height="8.115"/>
			<g>
				<g>
					<rect x="1144.841" y="1028.194" style="fill:#28799C;" width="17.477" height="80.975"/>
					<path style="fill:#5AF2F2;" d="M1164.17,1084.464l-20.485-0.013c-3.638,2.972-5.96,7.494-5.954,12.559l0.029,14.817
						l32.374-0.038l-0.029-14.817C1170.099,1091.928,1167.787,1087.428,1164.17,1084.464z"/>
					<g>
						<rect x="1134.923" y="1111.771" style="fill:#28799C;" width="38.262" height="4.642"/>
					</g>
				</g>
				<g>
					<g>
						<polygon style="fill:#28799C;" points="1126.995,1196.214 1120.439,1197.173 1101.838,1149.064 1119.717,1146.449 						"/>
						<polygon style="fill:#28799C;" points="1195.142,1195.858 1201.763,1195.606 1211.286,1144.912 1193.229,1145.6 						"/>
						<path style="fill:#5AF2F2;" d="M1174.523,1133.829l-38.517-0.025c-4.693-0.003-8.53-3.845-8.527-8.538l0,0
							c0.003-4.693,3.845-8.53,8.538-8.527l38.517,0.025c4.693,0.003,8.53,3.845,8.526,8.538v0
							C1183.057,1129.995,1179.215,1133.832,1174.523,1133.829z"/>
						<g>
							<path style="fill:#5AF2F2;" d="M1140.427,1119.514c-2.669-2.931-7.186-3.203-10.187-0.614l-25.189,21.728
								c-5.825,4.925-5.733,13.934,0.192,18.739h0c5.635,4.569,13.992,3.222,17.905-2.887l18.026-28.09
								C1142.963,1125.603,1142.657,1121.962,1140.427,1119.514L1140.427,1119.514z"/>
							<g>
								<g>
									<path style="fill:#28799C;" d="M1109.701,1146.679c-2.013,2.536-0.951,6.257,2.098,7.347
										c1.847,0.661,3.97,0.054,5.19-1.482c2.014-2.536,0.951-6.257-2.098-7.347
										C1113.043,1144.536,1110.921,1145.142,1109.701,1146.679z"/>
								</g>
							</g>
							<g>
								<g>
									<path style="fill:#28799C;" d="M1131.756,1122.796c-1.547,1.948-0.731,4.807,1.612,5.645
										c1.419,0.508,3.05,0.042,3.988-1.139c1.547-1.949,0.731-4.807-1.612-5.645
										C1134.324,1121.15,1132.693,1121.615,1131.756,1122.796z"/>
								</g>
							</g>
						</g>
						<g>
							<path style="fill:#5AF2F2;" d="M1168.97,1119.872c2.259-3.257,6.7-4.123,10.017-1.953l27.835,18.215
								c6.424,4.113,7.522,13.056,2.282,18.6l0,0c-4.983,5.273-13.444,5.04-18.13-0.499l-21.575-25.466
								C1167.259,1126.243,1167.083,1122.594,1168.97,1119.872L1168.97,1119.872z"/>
							<g>
								<g>
									<path style="fill:#28799C;" d="M1171.904,1123.911c-0.47,2.443,1.576,4.6,4.04,4.259c1.493-0.206,2.724-1.374,3.009-2.854
										c0.47-2.443-1.576-4.6-4.04-4.259C1173.42,1121.263,1172.189,1122.43,1171.904,1123.911z"/>
								</g>
							</g>
							<g>
								<g>
									<path style="fill:#28799C;" d="M1195.144,1145.236c-0.612,3.18,2.051,5.987,5.258,5.543
										c1.943-0.269,3.545-1.788,3.916-3.715c0.612-3.18-2.051-5.987-5.258-5.543
										C1197.117,1141.791,1195.515,1143.31,1195.144,1145.236z"/>
								</g>
							</g>
						</g>
					</g>
				</g>
			</g>
			<g>
				<rect x="1092.513" y="1023.928" style="fill:#317FA0;" width="64.397" height="20.719"/>
				<path style="fill:#5AF2F2;" d="M1100.353,1056.966h-41.718c-12.525,0-22.679-10.154-22.679-22.679l0,0
					c0-12.525,10.154-22.679,22.679-22.679h41.718V1056.966z"/>
				<path style="fill:#5AF2F2;" d="M1154.39,1056.966h-29.399v-45.358h29.399c12.525,0,22.679,10.154,22.679,22.679l0,0
					C1177.069,1046.813,1166.915,1056.966,1154.39,1056.966z"/>
				<path style="fill:#2D6691;" d="M1159.739,1045.113c-6.078,2.548-13.095-0.324-15.643-6.402
					c-2.548-6.078,0.324-13.095,6.402-15.643c6.078-2.548,13.095,0.324,15.643,6.402S1165.817,1042.565,1159.739,1045.113z
					 M1152.443,1027.708c-3.519,1.475-5.182,5.538-3.707,9.058c1.475,3.519,5.538,5.182,9.058,3.707
					c3.519-1.475,5.182-5.538,3.707-9.058C1160.026,1027.896,1155.963,1026.233,1152.443,1027.708z"/>
			</g>
			<g>
				
					<rect x="918.394" y="1098.446" transform="matrix(0.5427 0.84 -0.84 0.5427 1363.6217 -293.7063)" style="fill:#317FA0;" width="66.255" height="13.83"/>
				<path style="fill:#317FA0;" d="M861.145,1163.625L861.145,1163.625c-5.395-8.388-2.97-19.561,5.418-24.956l92.919-59.824
					l19.538,30.374l-92.919,59.824C877.714,1174.438,866.54,1172.012,861.145,1163.625z"/>
				<g>
					<path style="fill:#5AF2F2;" d="M971.002,1138.008l100.524-74.442c12.919-9.567,16.164-27.534,7.409-41.015h0
						c-8.755-13.482-26.489-17.825-40.483-9.914l-108.685,61.547L971.002,1138.008z"/>
					<path style="fill:#2D6691;" d="M1063.941,1055.559c-9.026,5.861-21.137,3.287-26.998-5.739s-3.287-21.137,5.739-26.998
						c9.026-5.861,21.137-3.287,26.999,5.739C1075.541,1037.587,1072.967,1049.698,1063.941,1055.559z M1047.156,1029.713
						c-5.226,3.394-6.717,10.406-3.323,15.633c3.394,5.226,10.407,6.717,15.633,3.323c5.226-3.394,6.717-10.407,3.323-15.633
						C1059.395,1027.81,1052.382,1026.319,1047.156,1029.713z"/>
				</g>
			</g>
			<g>
				<path style="fill:#5AF2F2;" d="M984.905,1338.409L984.905,1338.409c-27.388,17.26-63.583,9.05-80.844-18.338l-78.346-124.317
					c-17.26-27.388-9.05-63.583,18.338-80.844h0c27.388-17.26,63.583-9.05,80.843,18.338l78.346,124.317
					C1020.503,1284.954,1012.293,1321.149,984.905,1338.409z"/>
				<path style="fill:#2D6691;" d="M857.015,1135.479c-14.419,9.087-18.74,28.144-9.653,42.563
					c9.087,14.419,28.143,18.744,42.563,9.656c14.422-9.089,18.742-28.145,9.655-42.565
					C890.492,1130.714,871.436,1126.39,857.015,1135.479z M883.309,1177.202c-8.622,5.434-20.017,2.849-25.452-5.775
					c-5.435-8.624-2.85-20.019,5.772-25.453c8.624-5.435,20.019-2.85,25.454,5.774
					C894.518,1160.372,891.933,1171.767,883.309,1177.202z"/>
				<path style="fill:#2D6691;" d="M937.087,1264.331c-14.419,9.087-18.74,28.144-9.653,42.563
					c9.087,14.419,28.143,18.744,42.562,9.657c14.422-9.089,18.742-28.145,9.655-42.565
					C970.564,1259.567,951.509,1255.242,937.087,1264.331z M963.382,1306.055c-8.622,5.434-20.017,2.849-25.452-5.775
					c-5.435-8.624-2.85-20.019,5.772-25.453c8.624-5.435,20.019-2.85,25.454,5.774
					C974.591,1289.224,972.006,1300.62,963.382,1306.055z"/>
			</g>
		</g>
		<g>
			<path style="fill:#3E95AB;" d="M1021.127,1482.477c-86.813,0-168.43-33.807-229.816-95.193
				c-61.386-61.386-95.192-143.002-95.192-229.815c0-86.813,33.807-168.43,95.192-229.816
				c61.386-61.386,143.003-95.193,229.816-95.193c86.813,0,168.43,33.807,229.816,95.193
				c61.387,61.386,95.193,143.003,95.193,229.816s-33.807,168.429-95.193,229.815
				C1189.558,1448.67,1107.94,1482.477,1021.127,1482.477z M1021.127,835.498c-177.535,0-321.97,144.435-321.97,321.971
				c0,177.535,144.435,321.969,321.97,321.969s321.97-144.435,321.97-321.969C1343.098,979.933,1198.663,835.498,1021.127,835.498z"
				/>
			<g>
				<path style="fill:#3E95AB;" d="M1369.516,1156.48c-0.01-16.101-1.119-31.943-3.251-47.46l18.797-2.6
					c-2.295-16.55-5.746-33.071-10.259-49.115l-18.204,5.125c-4.312-15.403-9.666-30.365-15.967-44.822l17.276-7.553
					c-6.673-15.269-14.465-30.222-23.185-44.458l-16.043,9.81c-8.28-13.586-17.478-26.56-27.497-38.827l14.532-11.875
					c-10.546-12.907-22.085-25.222-34.285-36.59l-12.764,13.701c-11.607-10.823-23.941-20.862-36.943-30.031l10.765-15.278
					c-13.643-9.628-28.08-18.386-42.89-26.044l-8.576,16.569c-14.035-7.276-28.635-13.624-43.703-18.95l6.215-17.573
					c-15.747-5.574-32.029-10.096-48.397-13.452l-3.738,18.242c-15.384-3.165-31.14-5.306-47.193-6.358l1.224-18.577
					c-16.578-1.099-33.54-1.071-50.109,0.067l1.281,18.577c-16.043,1.099-31.8,3.289-47.173,6.511l-3.796-18.242
					c-16.349,3.404-32.603,7.974-48.311,13.586l6.262,17.554c-15.058,5.373-29.629,11.76-43.636,19.074l-8.614-16.559
					c-14.772,7.696-29.17,16.493-42.785,26.149l10.804,15.25c-12.965,9.198-25.269,19.265-36.838,30.126l-12.802-13.672
					c-12.181,11.397-23.682,23.74-34.199,36.685l14.561,11.836c-9.991,12.305-19.151,25.308-27.402,38.923l-16.072-9.771
					c-8.681,14.274-16.445,29.275-23.08,44.573l17.305,7.505c-6.272,14.485-11.578,29.476-15.842,44.908l-18.233-5.077
					c-4.465,16.053-7.869,32.593-10.106,49.143l18.806,2.543c-2.056,15.279-3.107,30.863-3.107,46.696c0,0.249,0,0.507,0.01,0.755
					l-19.036,0.019c0.019,16.722,1.167,33.549,3.423,50.013l18.911-2.591c2.189,15.881,5.459,31.427,9.724,46.552l-18.424,5.172
					c4.503,16.063,10.173,31.962,16.846,47.269l17.583-7.668c6.387,14.599,13.739,28.664,21.981,42.135l-16.426,10.02
					c8.681,14.217,18.424,27.985,28.97,40.921l14.953-12.2c10.03,12.286,20.891,23.873,32.479,34.687l-13.175,14.121
					c12.2,11.387,25.289,22.038,38.903,31.656l11.167-15.814c12.917,9.121,26.484,17.372,40.615,24.686l-8.92,17.219
					c14.829,7.687,30.327,14.418,46.055,20.001l6.492-18.3c14.829,5.268,30.126,9.542,45.806,12.764l-3.92,19.026
					c16.301,3.365,33.023,5.631,49.698,6.75l1.291-19.399c7.792,0.526,15.651,0.794,23.577,0.794c8.041,0,16.015-0.268,23.921-0.813
					l1.319,19.389c16.684-1.128,33.396-3.413,49.698-6.798l-3.939-19.016c15.661-3.241,30.939-7.534,45.749-12.802l6.511,18.29
					c15.708-5.593,31.188-12.333,46.007-20.03l-8.94-17.21c14.112-7.314,27.669-15.575,40.567-24.696l11.186,15.804
					c13.605-9.618,26.685-20.279,38.875-31.666l-13.204-14.122c11.597-10.813,22.449-22.411,32.479-34.706l14.953,12.181
					c10.546-12.946,20.288-26.732,28.96-40.959l-16.435-10.01c8.242-13.49,15.585-27.574,21.962-42.192l17.592,7.649
					c6.664-15.317,12.324-31.236,16.818-47.317l-18.433-5.154c4.254-15.125,7.505-30.671,9.685-46.562l18.902,2.572
					c2.237-16.454,3.375-33.281,3.375-50.013v-0.679H1369.516z M1340.106,1246.563c-4.111,14.638-9.198,28.855-15.192,42.594
					c-6.052,13.892-13.041,27.296-20.881,40.118c-7.869,12.907-16.607,25.231-26.13,36.896
					c-9.542,11.703-19.867,22.736-30.901,33.014c-11.005,10.288-22.717,19.82-35.05,28.52
					c-12.266,8.672-25.155,16.531-38.578,23.481c-13.299,6.912-27.134,12.946-41.427,18.013
					c-14.083,5.01-28.606,9.093-43.493,12.171c-14.59,3.021-29.534,5.086-44.764,6.109c-7.524,0.516-15.116,0.775-22.764,0.775
					c-7.544,0-15.02-0.248-22.44-0.746c-15.221-1.023-30.164-3.06-44.755-6.071c-14.905-3.069-29.448-7.132-43.55-12.142
					c-14.303-5.058-28.147-11.081-41.466-17.975c-13.443-6.96-26.34-14.81-38.626-23.482c-12.343-8.701-24.065-18.233-35.089-28.501
					c-11.033-10.268-21.359-21.292-30.911-32.985c-9.513-11.645-18.261-23.96-26.14-36.857c-7.84-12.802-14.829-26.188-20.89-40.06
					c-6.014-13.73-11.11-27.937-15.231-42.556c-4.054-14.38-7.161-29.161-9.255-44.257c-2.036-14.752-3.107-29.82-3.136-45.127
					c-0.01-0.249-0.01-0.497-0.01-0.746c0-15.058,1.004-29.887,2.954-44.41c2.018-15.116,5.067-29.916,9.054-44.315
					c4.063-14.666,9.112-28.922,15.068-42.69c6.014-13.93,12.965-27.363,20.776-40.223c7.84-12.955,16.55-25.317,26.053-37.029
					c9.523-11.75,19.829-22.822,30.853-33.157c11.005-10.326,22.717-19.906,35.05-28.664c12.276-8.719,25.174-16.617,38.607-23.615
					c13.318-6.96,27.172-13.022,41.485-18.137c14.102-5.048,28.654-9.159,43.579-12.267c14.628-3.05,29.6-5.144,44.869-6.186
					c7.649-0.535,15.364-0.803,23.147-0.803c7.448,0,14.839,0.249,22.162,0.727c15.269,1.013,30.251,3.05,44.879,6.052
					c14.944,3.069,29.524,7.152,43.655,12.152c14.332,5.077,28.214,11.11,41.552,18.032c13.471,6.96,26.398,14.839,38.702,23.529
					c12.372,8.719,24.113,18.281,35.146,28.578c11.043,10.307,21.388,21.349,30.93,33.071c9.532,11.674,18.271,24.017,26.149,36.934
					c7.83,12.831,14.81,26.226,20.862,40.127c5.995,13.739,11.081,27.975,15.183,42.613c4.035,14.389,7.123,29.18,9.188,44.296
					c2.027,14.752,3.079,29.811,3.088,45.118v0.268c0,15.45-1.061,30.662-3.107,45.548
					C1347.238,1217.402,1344.15,1232.183,1340.106,1246.563z"/>
			</g>
			<path style="fill:#80E1FA;" d="M1021.128,1461.054c-24.712,0-49.294-2.979-73.064-8.852l4.66-18.859
				c22.247,5.498,45.261,8.285,68.404,8.285c8.783,0,17.651-0.406,26.356-1.206l1.777,19.345
				C1039.968,1460.621,1030.502,1461.054,1021.128,1461.054z M1059.398,1458.663l-2.425-19.273
				c31.735-3.993,62.32-13.254,90.905-27.524l8.677,17.381C1126.003,1444.499,1093.314,1454.396,1059.398,1458.663z
				 M938.205,1449.588c-32.814-9.297-63.645-24.002-91.637-43.708l11.183-15.885c26.197,18.442,55.048,32.204,85.75,40.903
				L938.205,1449.588z M1165.583,1424.549l-9.256-17.079c28.064-15.21,53.233-34.917,74.81-58.574l14.354,13.09
				C1222.445,1387.252,1195.561,1408.301,1165.583,1424.549z M838.323,1399.865c-27.258-20.589-50.704-45.413-69.687-73.783
				l16.146-10.803c17.773,26.563,39.727,49.807,65.25,69.084L838.323,1399.865z M1252.235,1354.336l-14.783-12.604
				c20.794-24.389,37.185-51.835,48.716-81.578l18.113,7.021C1291.959,1298.959,1274.448,1328.283,1252.235,1354.336z
				 M763.116,1317.525c-18.061-29.055-30.968-60.677-38.362-93.99l18.965-4.209c6.918,31.167,18.995,60.755,35.896,87.943
				L763.116,1317.525z M1307.817,1257.576l-18.34-6.404c10.49-30.045,15.81-61.571,15.81-93.704l-0.001-0.633h19.426l0.001,0.588
				C1324.713,1191.786,1319.028,1225.467,1307.817,1257.576z M722.712,1213.543c-3.431-18.366-5.17-37.232-5.17-56.075
				c0-15.197,1.134-30.468,3.371-45.387l19.211,2.88c-2.094,13.969-3.156,28.271-3.156,42.507c0,17.649,1.628,35.315,4.84,52.508
				L722.712,1213.543z M1305.109,1147.308c-1.127-32.059-7.566-63.363-19.142-93.044l18.1-7.058
				c12.37,31.722,19.253,65.171,20.456,99.419L1305.109,1147.308z M741.699,1105.549l-19.104-3.526
				c6.199-33.581,17.965-65.652,34.972-95.321l16.854,9.661C758.507,1044.124,747.498,1074.13,741.699,1105.549z M1282.363,1045.46
				c-12.584-29.307-29.931-56.149-51.559-79.782l14.331-13.115c23.103,25.243,41.633,53.919,55.078,85.233L1282.363,1045.46z
				 M779.314,1008.15l-16.519-10.223c17.957-29.017,40.512-54.656,67.039-76.207l12.249,15.077
				C817.245,956.977,796.126,980.984,779.314,1008.15z M1224.243,958.746c-22.406-22.897-48.258-41.708-76.839-55.91l8.645-17.396
				c30.534,15.172,58.149,35.265,82.08,59.72L1224.243,958.746z M849.586,930.909l-11.738-15.479
				c27.278-20.687,57.561-36.482,90.006-46.947l5.963,18.488C903.457,896.764,875.118,911.546,849.586,930.909z M1138.768,898.725
				c-29.054-13.231-59.958-21.395-91.855-24.262l1.739-19.348c34.085,3.064,67.113,11.789,98.167,25.932L1138.768,898.725z
				 M942.948,884.196l-5.334-18.68c27.036-7.72,55.134-11.634,83.514-11.634c5.77,0,11.609,0.164,17.357,0.488l-1.093,19.396
				c-5.385-0.303-10.857-0.458-16.264-0.458C994.553,873.309,968.249,876.972,942.948,884.196z"/>
		</g>
	</g>
	<g>
		<path style="fill:#FFFFFF;" d="M1964.337,1493.267c11.89-14.823,20.951-31.654,26.979-50.109l18.362,5.588l0.873-2.847
			c6.836-22.286,9.183-45.439,6.974-68.818l-0.263-2.776l-2.788,0.073l-16.376,1.514c-1.415-12.597-4.369-25.051-8.792-37.061
			l-5.602,2.064c4.592,12.467,7.537,25.427,8.755,38.52l0.276,2.973l19.1-1.784c1.597,20.59-0.467,40.98-6.144,60.689l-18.311-5.573
			l-0.874,2.846c-6.075,19.786-15.715,37.684-28.652,53.196l-1.918,2.3l14.795,12.256c-13.246,15.567-29.12,28.536-47.255,38.602
			l-9.042-16.951l-2.634,1.406c-15.956,8.511-32.944,14.066-50.594,16.563c0.768,1.874,1.414,3.801,1.965,5.741
			c16.965-2.525,33.333-7.767,48.793-15.656l9.066,16.997l2.634-1.406c20.815-11.102,38.845-25.835,53.587-43.788l1.886-2.297
			L1964.337,1493.267z"/>
	</g>
</g>
<g id="robot_hand">
	<g>
		<defs>
			<rect id="SVGID_1_" width="2500" height="2500"/>
		</defs>
		<clipPath id="SVGID_00000089566913085665371560000004825946108417509539_">
			<use xlink:href="#SVGID_1_"  style="overflow:visible;"/>
		</clipPath>
		<g style="clip-path:url(#SVGID_00000089566913085665371560000004825946108417509539_);">
			<path style="fill:#312A52;" d="M2497.889,2909.074c-6.454-0.001-12.954-0.319-19.319-0.944l-10.963-1.077l-674.629-697.079
				l-2.014-3.862c-7.51-14.402-8.044-31.214-1.641-50.232c-1.021,0.221-1.988,0.402-2.904,0.551
				c-10.355,4.098-19.423,6.356-27.514,6.854l-5.185,4.518l-17.844-8.648c-7.747-3.755-16.642-7.917-27.19-12.725
				c-12.622-5.755-26.232-11.814-40.641-18.229c-36.538-16.267-77.95-34.704-117.2-54.457l-9.89-4.978l-4.286-10.208
				c-0.519-1.235-1.002-2.513-1.451-3.834c-1.266,0.148-2.533,0.254-3.801,0.317l-5.918,5.917l-19.849-11.213
				c-49.381-27.896-83.486-53.858-104.265-79.368c-10.919-13.406-18.354-29.163-21.503-45.569
				c-2.044-10.643-2.165-20.95-0.411-30.571l-6.122,6.121l3.124-73.656l-0.69-3.903l1.004-3.263
				c1.88-39.974,6.189-72.523,6.378-73.932l0.232-1.742l0.435-1.703c0.059-0.229,0.191-0.735,0.403-1.488
				c-19.573-22.906-38.35-45.326-55.957-66.814l-5.284-6.45l-0.104,0.089l-7.569-9.454l-5.572-6.801l0.075-0.064l-6.391-7.982
				c-32.2-40.215-60.349-77.353-83.665-110.381l-15.691-22.229l0.304-0.263c-30.55-34.464-52.571-65.89-65.455-93.408
				c-13.329-28.473-17.385-53.841-12.053-75.398c5.738-23.229,22.008-40.837,45.812-49.575l0.83-0.305l0.846-0.256
				c2.885-0.869,5.882-1.31,8.909-1.31c14.291,0,23.836,8.753,38.228,23.035c9.543,9.472,22.046,22.571,37.875,39.155
				c15.808,16.563,35.481,37.175,57.159,59.293l1.034,1.055l0.037-0.032l10.828,11.118l10.472,10.684l-0.036,0.031
				c27.273,28.016,57.871,59.749,93.468,96.938l7.373,7.702l0.022-0.019l8.212,8.622l4.553,4.757
				c5.362-4.773,11.299-9.21,17.752-13.249c19.213-12.017,41.364-19.248,61.465-20.155c1.244-1.347,2.602-2.863,3.756-4.152
				c14.11-15.766,40.375-45.111,86.184-45.111c1.695,0,3.423,0.041,5.138,0.122c0,0,0,0,0.001,0c1.836,0,8.226-4.336,12.044-6.927
				c11.752-7.976,29.512-20.027,55.261-20.027c12.401,0,25.067,2.695,38.722,8.239l0.718,0.292l0.702,0.328
				c3.167,1.48,78.146,36.741,130.112,78.501l3.093,2.485l2.341,3.204c2.592,3.549,5.169,7.305,7.659,11.165
				c48.852,75.415,79.082,207.916,103.372,314.382c2.307,10.111,4.556,19.971,6.758,29.501c3.198,13.846,5.896,25.228,8.38,35.342
				c3.73,7.109,6.478,17.78,2.735,32.164c-0.976,3.75-2.354,7.647-4.157,11.74c11.922-4.027,22.708-6.053,32.306-6.053
				c15.062,0,25.491,4.963,31.963,9.623l792.377,494.201l3.625,9.247c9.753,24.869,6.001,61.845-11.152,109.9
				c-15.251,42.728-40.03,90.271-69.773,133.874c-35.72,52.365-76.945,96.895-119.218,128.775
				c-52.138,39.319-104.873,59.259-156.728,59.259C2497.915,2909.074,2497.905,2909.074,2497.889,2909.074z"/>
			<path style="fill:#1DBFBF;" d="M1406.588,1824.697c0,0,4.339,24.591,51.895,12.523c47.555-12.068,69.539-47.431,59.281-61.26
				C1507.505,1762.131,1418.604,1792.287,1406.588,1824.697z"/>
			<g>
				
					<ellipse transform="matrix(0.8423 -0.5391 0.5391 0.8423 -770.6454 1066.4834)" style="fill:#52468A;" cx="1437.079" cy="1850.117" rx="19.137" ry="28.042"/>
				<polygon style="fill:#52468A;" points="1456.711,1804.144 1421.962,1826.497 1452.195,1873.736 1486.944,1851.383 				"/>
				
					<ellipse transform="matrix(0.8423 -0.5391 0.5391 0.8423 -754.3184 1080.6404)" style="fill:#312A52;" cx="1469.434" cy="1829.296" rx="19.137" ry="28.042"/>
				
					<ellipse transform="matrix(0.8423 -0.5391 0.5391 0.8423 -754.319 1080.6421)" style="fill:#52468A;" cx="1469.434" cy="1829.296" rx="11.494" ry="16.843"/>
				<path style="fill:#312A52;" d="M1474.105,1826.306c-2.419-3.78-6.472-5.507-9.052-3.855s-2.71,6.054-0.29,9.835
					s6.472,5.506,9.052,3.855C1476.394,1834.49,1476.524,1830.087,1474.105,1826.306z"/>
				<path style="fill:#312A52;" d="M1437.686,1816.382c0,0-3.733,13.378,6.347,27.772s26.911,17.521,26.911,17.521l-7.545,4.853
					c0,0-14.459,1.534-27.228-17.83c-12.745-19.329-5.762-27.635-5.762-27.635L1437.686,1816.382z"/>
			</g>
			<path style="fill:#53E6E6;" d="M1574.29,1905.909c2.018,4.148,2.997,8.979,3.406,14.122c1.078,13.351-1.646,28.932,0.243,40.744
				c0.217,1.376,0.381,2.748,0.554,4.129c-3.13,11.851-8.057,23.048-16.828,32.215c-4.542,4.744-9.647,8.97-14.931,12.857
				c-6.021,4.424-12.415,8.415-19.358,11.332c-2.304,0.952-4.57,1.757-6.969,2.314c-40.564-22.915-75.427-47.231-95.76-72.194
				c-15.634-19.197-21.299-45.733-11.603-63.433c14.155-30.451,43.243-45.016,75.192-50.204c4.809-0.796,9.681-1.365,14.574-1.739
				C1515.469,1839.489,1551.75,1877.208,1574.29,1905.909z"/>
			<path style="fill:#53E6E6;" d="M1562.154,1800.271c-19.978-15.974-46.749-20.949-71.704-17.57
				c-0.008-0.009-0.017-0.002-0.017-0.002c-13.067,1.77-25.802,5.64-37.847,11.07c-9.688,4.349-18.938,9.702-27.569,15.771
				c-6.518,4.59-12.682,9.648-18.428,15.152c1.735-40.855,6.314-75.117,6.314-75.117s0.335-1.309,1.068-3.604
				c0.323-1.036,0.733-2.295,1.235-3.716c0.879-2.47,1.999-5.461,3.456-8.824c0.109-0.292,0.238-0.601,0.375-0.9
				c3.215-7.482,7.82-16.69,14.115-26.057c16.67-24.774,45.185-50.675,91.09-48.791
				C1585.34,1660.19,1574.099,1748.43,1562.154,1800.271z"/>
			<path style="fill:#1DBFBF;" d="M1433.151,1706.476l57.299,76.225c-0.008-0.009-0.017-0.002-0.017-0.002
				c-13.067,1.77-25.802,5.64-37.847,11.07c-2.043-9.228-12.507-49.671-38.615-47.797c0.323-1.036,0.733-2.295,1.235-3.716
				c0.879-2.47,1.999-5.461,3.456-8.824c0.109-0.292,0.238-0.601,0.375-0.9C1422.251,1725.051,1426.856,1715.843,1433.151,1706.476z
				"/>
			<path style="fill:#1DBFBF;" d="M1520.411,2023.621c0,0-24.516-14.111-18.801-36.689c5.714-22.578,44.331-84.903,72.472-81.26
				c12.829,16.442,7.764,44.76-0.271,74.382C1565.776,2009.676,1540.006,2031.058,1520.411,2023.621z"/>
			<path style="fill:#1DBFBF;" d="M1574.29,1905.909c2.018,4.148,2.997,8.979,3.406,14.122c-13.139,3.478-33.018,6.867-31.135-4.959
				c2.752-17.283-56.636-75.629-58.325-77.281c4.809-0.796,9.681-1.365,14.574-1.739
				C1515.469,1839.489,1551.75,1877.208,1574.29,1905.909z"/>
			<g>
				
					<ellipse transform="matrix(0.4508 -0.8926 0.8926 0.4508 -932.6617 2481.5374)" style="fill:#52468A;" cx="1550.412" cy="1998.742" rx="24.735" ry="36.245"/>
				<polygon style="fill:#52468A;" points="1542.025,1934.678 1518.059,1982.401 1582.765,2015.083 1606.73,1967.359 				"/>
				
					<ellipse transform="matrix(0.4508 -0.8926 0.8926 0.4508 -880.7365 2477.0542)" style="fill:#312A52;" cx="1572.722" cy="1954.297" rx="24.735" ry="36.245"/>
				
					<ellipse transform="matrix(0.4508 -0.8926 0.8926 0.4508 -880.7371 2477.0515)" style="fill:#52468A;" cx="1572.722" cy="1954.297" rx="14.857" ry="21.77"/>
				<path style="fill:#312A52;" d="M1575.953,1947.899c-5.178-2.615-10.823-1.871-12.608,1.663
					c-1.785,3.534,0.966,8.519,6.144,11.134c5.178,2.615,10.823,1.871,12.608-1.663
					C1583.882,1955.499,1581.131,1950.514,1575.953,1947.899z"/>
				<path style="fill:#312A52;" d="M1528.904,1960.806c0,0,4.644,17.341,25.325,26.729c20.681,9.388,41.466,1.798,41.466,1.798
					l-5.204,10.362c0,0-15.079,11.215-42.022-1.935c-26.893-13.125-24.585-26.96-24.585-26.96L1528.904,1960.806z"/>
			</g>
			<g>
				
					<ellipse transform="matrix(0.735 -0.6781 0.6781 0.735 -651.7249 1257.9409)" style="fill:#52468A;" cx="1283.405" cy="1462.714" rx="18.476" ry="27.074"/>
				<polygon style="fill:#52468A;" points="1235.665,1469.797 1265.046,1442.815 1301.764,1482.612 1272.383,1509.595 				"/>
				
					<ellipse transform="matrix(0.735 -0.6781 0.6781 0.735 -676.0137 1246.0547)" style="fill:#312A52;" cx="1256.041" cy="1487.835" rx="18.476" ry="27.074"/>
				<path style="fill:#52468A;" d="M1247.884,1495.361c-6.09-6.601-7.375-15.321-2.871-19.477
					c4.505-4.156,13.094-2.174,19.184,4.427c6.09,6.601,7.375,15.321,2.871,19.477
					C1262.563,1503.943,1253.975,1501.961,1247.884,1495.361z"/>
				<path style="fill:#312A52;" d="M1252.105,1491.466c-2.938-3.185-3.559-7.392-1.385-9.398c2.173-2.005,6.318-1.049,9.256,2.136
					c2.938,3.185,3.559,7.392,1.385,9.398C1259.188,1495.607,1255.044,1494.651,1252.105,1491.466z"/>
				<path style="fill:#312A52;" d="M1251.751,1455.025c0,0,13.408-0.212,24.384,12.725c10.976,12.937,9.777,29.422,9.777,29.422
					l6.379-5.859c0,0,4.972-13.128-9.988-29.793c-14.932-16.634-24.399-12.145-24.399-12.145L1251.751,1455.025z"/>
			</g>
			<g>
				
					<ellipse transform="matrix(0.735 -0.6781 0.6781 0.735 -710.7734 1369.7094)" style="fill:#52468A;" cx="1396.865" cy="1594.138" rx="18.476" ry="27.074"/>
				<polygon style="fill:#52468A;" points="1349.124,1601.222 1378.505,1574.239 1415.224,1614.037 1385.843,1641.019 				"/>
				<path style="fill:#312A52;" d="M1355.921,1631.788c-10.14-10.99-12.279-25.508-4.78-32.428c7.5-6.92,21.799-3.62,31.939,7.37
					c10.139,10.99,12.279,25.508,4.78,32.428C1380.36,1646.078,1366.06,1642.778,1355.921,1631.788z"/>
				<path style="fill:#52468A;" d="M1361.344,1626.785c-6.09-6.601-7.375-15.321-2.871-19.477
					c4.505-4.156,13.094-2.174,19.184,4.427c6.09,6.601,7.375,15.321,2.871,19.477
					C1376.023,1635.368,1367.434,1633.386,1361.344,1626.785z"/>
				<path style="fill:#312A52;" d="M1365.565,1622.891c-2.938-3.185-3.559-7.392-1.385-9.398c2.173-2.005,6.318-1.049,9.256,2.136
					c2.938,3.185,3.559,7.392,1.385,9.398C1372.647,1627.032,1368.503,1626.075,1365.565,1622.891z"/>
				<path style="fill:#312A52;" d="M1365.21,1586.449c0,0,13.408-0.212,24.384,12.725c10.976,12.937,9.777,29.421,9.777,29.421
					l6.379-5.859c0,0,4.972-13.128-9.988-29.793c-14.932-16.634-24.399-12.146-24.399-12.146L1365.21,1586.449z"/>
			</g>
			<path style="fill:#53E6E6;" d="M1810.88,2006.025c11.427,20.575,15.675,42.23,9.354,64.601l-71.272,61.53
				c-8.544-4.141-17.877-8.49-27.832-13.027c-45.15-20.584-103.001-45.112-156.797-72.186
				c-9.546-22.741,0.768-92.558,20.614-108.013c-9.681-17.179-22.896-35.65-39.356-56.471
				c-14.409-18.215-31.298-38.236-50.497-60.74c15.321-0.607,45.689,14.443,59.833,16.646
				C1620.307,1865.212,1767.457,1927.824,1810.88,2006.025z"/>
			<path style="fill:#53E6E6;" d="M1845.558,1553.648c2.263,3.098,4.489,6.343,6.677,9.735
				c50.488,77.942,81.309,227.045,106.109,334.371c3.659,15.845,7.199,30.79,10.638,44.456l-214.6,185.266
				c-7.783-8.863-15.816-18.053-24.04-27.522c-56.042-64.477-121.582-142.11-184.753-217.494
				c-19.725-23.514-39.199-46.816-58.088-69.439c-7.258-8.674-14.417-17.253-21.472-25.691
				c-19.855-23.78-38.866-46.545-56.563-67.712c0,0-41.014-55.665,28.936-105.901c4.046-2.917,8.471-5.816,13.308-8.676
				c0.75-2.391,1.681-4.742,2.785-7.028c6.319-13.321,18.011-24.879,31.672-33.431c16.817-10.519,36.62-16.493,53.129-15.591
				c15.578,1.196,32.413-51.709,86.076-49.168c30.614,1.46,42.625-42.624,96.159-20.886
				C1721.531,1478.938,1795.808,1513.67,1845.558,1553.648z"/>
			<path style="fill:#53E6E6;" d="M1295.109,1432.548l-67.737,58.478c-61.463-69.175-78.141-114.948-71.375-142.312
				c3.555-14.389,13.597-23.684,27.028-28.615C1187.947,1318.614,1230.913,1367.049,1295.109,1432.548z"/>
			<path style="fill:#53E6E6;" d="M1622.813,1776.155l-97.257,78.698c0,0-14.635-15.732-38.055-41.832
				c-33.224-37.018-84.144-94.875-136.015-158.18l86.225-74.438c5.624,5.905,11.224,11.782,16.784,17.612
				c5.632,5.915,11.215,11.79,16.741,17.6C1554.451,1703.162,1622.813,1776.155,1622.813,1776.155z"/>
			<path style="fill:#53E6E6;" d="M1410.665,1552.086l-83.811,72.355c-29.041-36.269-57.553-73.488-82.575-108.933l71.546-61.766
				C1345.955,1484.677,1378.456,1518.436,1410.665,1552.086z"/>
			
				<ellipse transform="matrix(0.7569 -0.6535 0.6535 0.7569 -878.0525 1708.4185)" style="fill:#1DBFBF;" cx="1857.61" cy="2034.58" rx="146.436" ry="32.435"/>
			<path style="fill:#312A52;" d="M1959.577,1964.612c8.18,9.475-26.839,53.116-78.219,97.473
				c-51.38,44.357-99.665,72.631-107.844,63.156c-0.35-0.405-0.616-0.866-0.807-1.393c-0.679-1.816-0.43-4.367,0.657-7.51
				c1.606-4.677,5.042-10.704,10.041-17.702c13.416-18.805,38.028-44.709,68.328-70.868s59.519-46.727,80.081-57.255
				c7.653-3.924,14.116-6.444,18.977-7.35c3.268-0.616,5.829-0.491,7.526,0.446
				C1958.809,1963.876,1959.227,1964.207,1959.577,1964.612z"/>
			<path style="fill:#52468A;" d="M1950.64,1954.261l7.903,9.154l-0.226,0.196c-1.697-0.937-4.258-1.063-7.526-0.446
				c-4.862,0.906-11.325,3.426-18.977,7.35c-20.561,10.528-49.78,31.096-80.081,57.255s-54.913,52.063-68.328,70.868
				c-4.999,6.998-8.435,13.024-10.041,17.702c-1.087,3.143-1.336,5.695-0.657,7.51l-0.226,0.196l-7.903-9.154
				c-8.18-9.475,26.839-53.116,78.219-97.473C1894.176,1973.06,1942.46,1944.786,1950.64,1954.261z"/>
			<g>
				
					<ellipse transform="matrix(0.7775 -0.6289 0.6289 0.7775 -867.6824 1672.1483)" style="fill:#52468A;" cx="1929.043" cy="2062.181" rx="40.789" ry="59.771"/>
				<polygon style="fill:#52468A;" points="1822.856,2070.941 1891.452,2015.712 1966.635,2108.651 1898.039,2163.879 				"/>
				
					<ellipse transform="matrix(0.7775 -0.6289 0.6289 0.7775 -914.2385 1643.4139)" style="fill:#312A52;" cx="1865.158" cy="2113.6" rx="40.789" ry="59.771"/>
				
					<ellipse transform="matrix(0.7775 -0.6289 0.6289 0.7775 -914.2376 1643.4088)" style="fill:#52468A;" cx="1865.158" cy="2113.6" rx="24.499" ry="35.9"/>
				
					<ellipse transform="matrix(0.7775 -0.6289 0.6289 0.7775 -914.2378 1643.4098)" style="fill:#312A52;" cx="1865.158" cy="2113.6" rx="11.821" ry="17.322"/>
				<path style="fill:#312A52;" d="M1860.412,2040.703c0,0,29.568,1.456,51.893,31.529c22.325,30.073,17.319,66.217,17.319,66.217
					l14.894-11.991c0,0,12.835-28.208-17.732-67.065c-30.51-38.786-52.009-30.255-52.009-30.255L1860.412,2040.703z"/>
			</g>
			<path style="fill:#42D6D6;" d="M2041.857,1998.608c-42.89-34.109-252.798,138.963-224.292,193.633l84.918,87.74l579.02,598.293
				c196.005,19.263,374.964-314.588,345.369-390.056L2041.857,1998.608z"/>
			<path style="fill:#4ED9D9;" d="M1852.235,1563.383c50.488,77.942,81.309,227.045,106.109,334.371
				c-35.611,22.122-95.671,61.894-147.464,108.27c-33.033,29.587-62.704,61.85-80.537,93.929c-3.57,6.405-6.662,12.81-9.213,19.175
				c-45.15-20.584-103.001-45.112-156.797-72.186c-9.546-22.741,0.768-92.558,20.614-108.013
				c-9.681-17.179-22.896-35.65-39.356-56.471c-27.284-32.537-54.12-64.671-79.561-95.13
				C1488.475,1779.289,1765.156,1678.591,1852.235,1563.383z"/>
			<path style="fill:#4ED9D9;" d="M1371.333,1586.041c-15.366-35.849-64.97-78.307-92.765-100.135l37.258-32.165
				c30.13,30.936,62.631,64.695,94.84,98.344L1371.333,1586.041z"/>
			<path style="fill:#4ED9D9;" d="M1295.109,1432.548l-35.514,30.659c-4.249-1.548-8.09-5.768-11.233-13.584
				c-14.352-35.721-63.958-78.506-92.365-100.909c3.555-14.389,13.597-23.684,27.028-28.615
				C1187.947,1318.614,1230.913,1367.049,1295.109,1432.548z"/>
			<path style="fill:#4ED9D9;" d="M1486.167,1564.583c-4.449,12.858-10.844,32.628-14.932,51.031
				c-2.81,12.66-4.521,24.667-3.753,33.333c-7.199-9.959-19.023-23.807-29.082-35.23c-7.72-8.77-14.406-16.078-17.17-19.089
				l16.479-14.227c5.624,5.905,11.224,11.782,16.784,17.612C1460.814,1584.693,1472.506,1573.135,1486.167,1564.583z"/>
			<path style="fill:#53E6E6;" d="M1872.592,2179.184c0,0,17.552-30.277,49.762-51.362
				c38.894,35.319,547.578,464.936,547.578,464.936l-78.646,76.298L1872.592,2179.184z"/>
			<path style="fill:#71FCFC;" d="M1504.925,1579.094c3.443,3.988-0.448,12.989-8.69,20.105s-17.715,9.651-21.158,5.663
				c-3.443-3.988,0.448-12.989,8.69-20.105C1492.01,1577.641,1501.482,1575.106,1504.925,1579.094z"/>
			<path style="fill:#71FCFC;" d="M1515.471,1576.711c3.443,3.988-0.447,12.989-8.689,20.105s-17.715,9.651-21.158,5.663
				c-3.443-3.988,0.448-12.989,8.69-20.105C1502.556,1575.258,1512.028,1572.723,1515.471,1576.711z"/>
			
				<ellipse transform="matrix(0.7569 -0.6535 0.6535 0.7569 -622.9067 1409.205)" style="fill:#71FCFC;" cx="1582.951" cy="1541.981" rx="19.716" ry="9.54"/>
			
				<ellipse transform="matrix(0.7569 -0.6535 0.6535 0.7569 -575.0828 1460.2852)" style="fill:#71FCFC;" cx="1675.527" cy="1503.229" rx="19.716" ry="9.54"/>
			<g>
				<path style="fill:#53E6E6;" d="M1619.452,1836.271l95.443,115c7.207,8.684,19.826,10.484,29.174,4.162l146.037-98.765
					c8.33-5.634,11.764-16.21,8.332-25.662l-47.444-130.667c-4.686-12.906-19.941-18.385-31.768-11.411L1625.19,1803.36
					C1613.552,1810.224,1610.824,1825.874,1619.452,1836.271z"/>
				<path style="fill:#389999;" d="M1731.763,1960.227c-6.602,0-13.11-2.862-17.638-8.316l-95.442-115.001
					c-4.3-5.182-6.103-11.957-4.946-18.591c1.157-6.633,5.146-12.399,10.946-15.819l194.035-114.432
					c5.895-3.477,12.969-4.142,19.407-1.83c6.44,2.313,11.474,7.329,13.809,13.762l47.445,130.665
					c3.593,9.899,0.011,20.933-8.712,26.832l-146.037,98.766C1740.682,1958.932,1736.201,1960.227,1731.763,1960.227z
					 M1620.222,1835.632l95.442,115.001c6.912,8.327,18.883,10.035,27.845,3.973l146.037-98.766
					c7.963-5.386,11.232-15.457,7.952-24.493l-47.444-130.666c-2.132-5.871-6.726-10.449-12.604-12.561
					c-5.878-2.112-12.335-1.504-17.716,1.67l-194.035,114.432c-5.294,3.122-8.936,8.386-9.991,14.44
					S1616.297,1830.902,1620.222,1835.632L1620.222,1835.632z"/>
			</g>
			<path style="fill:#389999;" d="M1693.213,1798.745c0,1.88-1.524,3.404-3.404,3.404s-3.404-1.524-3.404-3.404
				c0-1.88,1.524-3.404,3.404-3.404S1693.213,1796.865,1693.213,1798.745z"/>
			<path style="fill:#389999;" d="M1817.468,1727.255c0,1.88-1.524,3.404-3.404,3.404c-1.88,0-3.404-1.524-3.404-3.404
				c0-1.88,1.524-3.404,3.404-3.404C1815.944,1723.851,1817.468,1725.375,1817.468,1727.255z"/>
		</g>
	</g>
</g>
</svg>
